<?xml version="1.0"?>
<svg xmlns="http://www.w3.org/2000/svg" xmlns:xlink="http://www.w3.org/1999/xlink" width="1117" height="831" viewBox="0 0 1117 831">
  <defs>
    <clipPath id="clip-Web_1920_1">
      <rect width="1117" height="831"/>
    </clipPath>
  </defs>
  <g id="Web_1920_1" clip-path="url(#clip-Web_1920_1)">
    <rect width="1117" height="831" fill="#fff"/>
    <g id="shutterstock_323800040_&#x43F;&#x440;&#x435;&#x43E;&#x431;&#x440;&#x430;&#x437;&#x43E;&#x432;&#x430;&#x43D;&#x43D;&#x44B;&#x439;_" transform="translate(-0.276 0.318)">
      <g id="Group_14" transform="translate(387.289 663.747)">
        <path id="Path_37" d="M365.332,103.08H62.278c-9.729,0-15.73-1.273-18.185-3.91A4.383,4.383,0,0,1,42.82,95.9V91.442a1.182,1.182,0,0,1,2.364,0V95.9a2.551,2.551,0,0,0,.636,1.728c1.364,1.455,5.365,3.182,16.548,3.182H365.423c11.184,0,15.185-1.728,16.548-3.182a2.178,2.178,0,0,0,.637-1.728V91.715a1.182,1.182,0,1,1,2.364,0v4.273a4.708,4.708,0,0,1-1.273,3.182C381.062,101.807,375.061,103.08,365.332,103.08Z" transform="translate(-42.82 63.222)" fill="#747474"/>
        <path id="Path_38" d="M365.328,234.863H62.273c-11.093,0-17.367-1.637-19-5.092-.636-1.273-.909-3.455,1.364-6.274,1.909-2.455,7.547-6,14.639-10.638,11.548-7.456,27.459-17.73,30.1-25.55C97.007,164.76,101.1,77.108,101.28,73.38l2.273.091c-.182,3.728-4.273,91.653-12,114.566-2.91,8.547-18.458,18.64-31.006,26.732-6.638,4.273-12.366,8-14.093,10.093-.818,1.091-1.728,2.637-1.091,3.91.727,1.455,3.819,3.819,17,3.819H365.419c13.184,0,16.276-2.364,17-3.819.636-1.273-.273-2.819-1.091-3.91-1.637-2.091-7.456-5.819-14.093-10.093-12.548-8.092-28.1-18.185-31.006-26.732-7.547-22.459-11.547-105.11-12-114.384l2.273-.091c.182,3.728,4.273,91.289,11.911,113.838,2.637,7.82,18.458,18,30.1,25.55,7.092,4.546,12.73,8.183,14.639,10.638,2.273,2.91,2,5,1.364,6.274C382.694,233.136,376.421,234.863,365.328,234.863Z" transform="translate(-42.815 -73.38)" fill="#747474"/>
        <rect id="Rectangle_379" width="248.772" height="2.273" transform="translate(46.645 114.111)" fill="#747474"/>
      </g>
      <path id="Path_39" d="M1085.024,664.747H31.526A31.6,31.6,0,0,1,0,633.179V31.478A31.525,31.525,0,0,1,31.526,0h1053.5a31.525,31.525,0,0,1,31.526,31.478v601.7A31.6,31.6,0,0,1,1085.024,664.747ZM31.526,2.261A29.284,29.284,0,0,0,2.265,31.478v601.7A29.284,29.284,0,0,0,31.526,662.4h1053.5a29.284,29.284,0,0,0,29.262-29.217V31.478a29.284,29.284,0,0,0-29.262-29.217Z" fill="#747474"/>
      <path id="Path_40" d="M1026.183,582.628H6.367a1.2,1.2,0,0,1-1.177-1.182V6.162A1.2,1.2,0,0,1,6.367,4.98H1026.273a1.2,1.2,0,0,1,1.177,1.182V581.537A1.358,1.358,0,0,1,1026.183,582.628ZM7.454,580.355H1025.1V7.253H7.454Z" transform="translate(42 40.301)" fill="#747474"/>
      <path id="Path_41" d="M67.133,14.346a6.183,6.183,0,1,1,6.183-6.183A6.189,6.189,0,0,1,67.133,14.346Zm0-10.184a3.939,3.939,0,0,0-3.91,3.91,3.91,3.91,0,1,0,7.82,0A3.939,3.939,0,0,0,67.133,4.162Z" transform="translate(491.187 16.023)" fill="#747474"/>
    </g>
  </g>
</svg>
