<?xml version="1.0" encoding="UTF-8"?>
<!DOCTYPE svg PUBLIC "-//W3C//DTD SVG 1.1//EN" "http://www.w3.org/Graphics/SVG/1.1/DTD/svg11.dtd">
<svg xmlns="http://www.w3.org/2000/svg" xml:space="preserve" width="334mm" height="234mm" version="1.1" style="shape-rendering:geometricPrecision; text-rendering:geometricPrecision; image-rendering:optimizeQuality; fill-rule:evenodd; clip-rule:evenodd"
viewBox="0 0 33400 23400"
 xmlns:xlink="http://www.w3.org/1999/xlink">
 <defs>
  <style type="text/css">
   <![CDATA[
    .str0 {stroke:#777777;stroke-width:70.56}
    .fil0 {fill:none}
    .fil4 {fill:#1090CF;fill-rule:nonzero}
    .fil3 {fill:#252626;fill-rule:nonzero}
    .fil6 {fill:#84807B;fill-rule:nonzero}
    .fil1 {fill:#AEAAA7;fill-rule:nonzero}
    .fil2 {fill:#E9E9E7;fill-rule:nonzero}
    .fil5 {fill:#FEFEFE;fill-rule:nonzero}
   ]]>
  </style>
 </defs>
  <g>
   <rect class="fil0 str0" x="154" y="101" width="33091" height="23199" rx="710" ry="712"/>
   <rect class="fil0 str0" x="1390" y="1307" width="30623" height="20786"/>
   <circle class="fil0 str0" cx="769" cy="11700" r="193"/>
   <path class="fil1" d="M15424 7089c-80,0 -159,-28 -221,-80 -60,-56 -93,-135 -90,-217l0 -552 203 0 0 556c2,91 45,137 128,137 3,0 6,0 9,0 32,0 62,-12 86,-34 24,-32 35,-72 32,-113l0 -546 201 0 0 548c2,56 -12,112 -39,161 -27,45 -66,81 -114,104 -52,23 -108,35 -165,35 -4,0 -7,0 -10,0 -7,1 -13,1 -20,1zm3286 0c-92,0 -181,-37 -247,-101 -69,-77 -106,-177 -105,-281l0 -72c-2,-74 13,-148 43,-216 27,-58 71,-108 125,-142 55,-32 118,-49 181,-49 3,0 5,0 8,0 7,-1 15,-1 23,-1 79,0 156,25 220,72 61,55 97,132 100,214l-194 0c-2,-38 -18,-73 -45,-100 -25,-20 -56,-30 -88,-30 -3,0 -6,0 -9,0 -2,0 -3,0 -4,0 -47,0 -90,24 -114,64 -30,56 -45,120 -41,184l0 51c-5,65 10,131 42,188 29,40 75,64 123,64 4,0 8,-1 12,-1 4,0 9,1 13,1 38,0 74,-13 104,-36l0 -130 -140 0 0 -138 342 0 0 343c-38,39 -85,68 -136,84 -62,20 -126,31 -191,31 -2,0 -4,0 -6,0 -5,0 -11,1 -16,1zm-4070 -1c-64,0 -127,-17 -183,-49 -56,-33 -100,-82 -129,-140 -32,-66 -48,-138 -49,-210l0 -47c-1,-75 14,-149 46,-217 27,-60 72,-111 129,-145 56,-34 120,-52 185,-52 3,0 5,0 7,0 2,0 4,0 6,0 64,0 128,18 183,51 57,34 102,84 130,144 32,67 48,140 47,214l0 39c1,74 -14,148 -46,216 -27,60 -72,111 -129,145 -55,34 -119,51 -184,51 -2,0 -4,0 -6,0 -2,0 -5,0 -7,0zm10 -702c-1,0 -3,0 -4,0 -101,0 -155,76 -161,228l0 62c-4,65 10,130 40,189 24,41 68,66 116,66 2,0 4,0 6,0 1,0 3,0 4,0 47,0 90,-25 114,-65 31,-57 45,-122 42,-187l0 -39c4,-65 -11,-131 -42,-189 -24,-40 -68,-65 -115,-65zm4863 702c-64,0 -127,-17 -183,-49 -55,-33 -100,-82 -129,-140 -32,-66 -48,-138 -48,-210l0 -47c-2,-75 13,-149 45,-217 28,-60 73,-111 129,-145 56,-34 120,-52 186,-52 2,0 4,0 6,0 2,0 4,0 6,0 64,0 128,18 183,51 57,34 102,84 130,144 32,67 48,140 47,214l0 39c1,74 -14,148 -46,216 -27,60 -72,111 -128,145 -56,34 -120,51 -185,51 -2,0 -4,0 -6,0 -2,0 -4,0 -7,0zm11 -702c-2,0 -4,0 -5,0 -101,0 -155,76 -161,228l0 62c-4,65 10,130 41,189 24,41 68,66 115,66 2,0 4,0 6,0 1,0 3,0 4,0 47,0 90,-25 114,-65 31,-57 45,-122 42,-187l0 -39c4,-65 -10,-131 -42,-189 -24,-40 -68,-65 -114,-65zm-1626 702c-64,0 -127,-17 -183,-49 -56,-33 -101,-82 -129,-140 -32,-66 -49,-138 -49,-210l0 -47c-1,-75 14,-149 45,-217 28,-61 73,-111 130,-146 56,-33 120,-51 185,-51 2,0 4,0 6,0 2,0 4,0 6,0 65,0 128,18 184,51 56,34 101,84 130,144 32,67 48,140 46,214l1 39c1,74 -14,148 -46,216 -27,60 -72,111 -129,145 -56,34 -119,51 -184,51 -2,0 -4,0 -6,0 -3,0 -5,0 -7,0zm10 -702c-1,0 -3,0 -4,0 -102,0 -155,76 -161,228l0 61c-4,66 10,131 40,190 24,41 68,66 116,66 2,0 4,0 6,0 1,0 2,0 4,0 46,0 90,-25 113,-65 31,-57 46,-122 42,-187l0 -39c5,-65 -10,-131 -41,-189 -24,-40 -68,-65 -115,-65zm-395 691l-553 0 0 -837 201 0 0 682 352 0 0 155zm-940 0l-216 0 -148 -296 -109 0 0 296 -202 0 0 -837 330 0c7,-1 14,-1 21,-1 76,0 150,23 212,67 56,45 87,114 84,187 1,50 -11,100 -36,144 -27,41 -65,74 -110,93l174 338 0 9zm-473 -682l0 231 128 0c3,0 6,0 8,0 29,0 57,-11 78,-31 21,-23 31,-53 29,-84 2,-31 -8,-62 -29,-85 -21,-20 -49,-31 -78,-31 -3,0 -5,0 -8,0l-128 0zm-2111 682l-204 0 0 -301 -269 -536 216 0 155 363 154 -363 218 0 -270 536 0 301z"/>
   <polygon class="fil2 " points="10849,11400 22554,11400 22554,11360 10849,11360 "/>
   <path class="fil3" d="M12585 10893l-58 0 0 -487 58 0 0 487zm-221 -434c0,-9 3,-18 9,-25 7,-6 16,-10 26,-9 10,-1 19,3 26,9 6,7 9,16 9,25 0,8 -3,17 -9,23 -7,7 -16,11 -26,10 -10,1 -19,-3 -26,-10 -6,-6 -9,-15 -9,-23zm64 434l-59 0 0 -343 59 0 0 343zm-303 -45c19,0 37,-5 53,-14 15,-8 28,-21 35,-37l0 -70 -46 0c-71,0 -107,21 -107,63 -1,16 6,32 18,43 13,11 30,16 47,15l0 0zm98 45c-5,-12 -8,-24 -8,-36 -26,27 -61,43 -98,42 -31,2 -60,-9 -84,-28 -21,-19 -33,-45 -32,-73 -1,-33 14,-64 41,-83 34,-22 74,-33 114,-30l57 0 0 -27c1,-18 -5,-36 -18,-49 -15,-13 -34,-20 -54,-18 -19,-1 -38,4 -53,15 -13,9 -21,23 -21,39l-59 0c0,-18 7,-36 18,-50 13,-16 30,-29 49,-38 22,-9 46,-14 69,-14 34,-2 67,9 93,30 23,21 36,51 35,82l0 158c-1,25 3,51 12,75l0 5 -61 0zm-726 -343l1 38c26,-30 63,-46 102,-45 41,-4 80,18 98,56 12,-17 27,-31 45,-40 20,-11 42,-16 65,-16 75,0 113,40 114,120l0 230 -58 0 0 -227c1,-19 -5,-39 -17,-54 -16,-14 -36,-21 -56,-19 -20,0 -40,7 -55,20 -14,13 -23,32 -25,52l0 228 -59 0 0 -225c6,-36 -19,-69 -55,-75 -6,0 -12,-1 -18,0 -34,-2 -66,18 -79,49l0 251 -59 0 0 -343 56 0zm-112 171l-155 0 0 -48 155 0 0 48zm-222 -42l-200 0 0 164 233 0 0 50 -294 0 0 -462 291 0 0 50 -230 0 0 149 200 0 0 49z"/>
   <polygon class="fil2" points="10849,13836 22554,13836 22554,13796 10849,13796 "/>
   <path class="fil3" d="M13439 13161c-2,32 7,64 24,91 16,22 41,34 67,33 35,2 67,-18 82,-50l0 -157c-15,-31 -47,-50 -81,-49 -27,-1 -52,11 -68,33 -18,30 -26,64 -24,99l0 0zm-58 -7c-3,-45 11,-90 37,-127 23,-31 59,-49 98,-48 36,-1 72,14 95,42l0 -179 59 0 0 487 -54 0 -3 -37c-24,29 -60,45 -98,43 -38,1 -74,-17 -97,-49 -26,-37 -39,-82 -37,-127l0 -5zm-34 -116c-10,-1 -19,-2 -29,-2 -34,-3 -66,17 -78,49l0 244 -59 0 0 -343 57 0 1 39c17,-29 48,-47 82,-46 9,0 18,1 26,5l0 54zm-493 123c-2,33 8,65 27,92 16,22 43,35 70,34 29,1 55,-12 72,-35 19,-29 28,-63 26,-98 2,-32 -8,-65 -27,-91 -16,-23 -43,-36 -71,-35 -28,-1 -54,12 -70,34 -20,29 -29,64 -27,99l0 0zm-59 -7c0,-31 6,-62 20,-90 12,-26 31,-48 55,-63 24,-15 52,-22 81,-22 43,-1 85,17 113,49 30,36 46,82 44,129l0 4c0,31 -7,62 -20,90 -12,26 -31,47 -55,62 -24,15 -53,23 -81,22 -43,2 -85,-16 -113,-49 -31,-35 -46,-81 -44,-128l0 -4zm-169 94l66 -262 59 0 -100 343 -47 0 -84 -260 -81 260 -48 0 -99 -343 58 0 68 257 80 -257 47 0 81 262zm-439 -10c1,-15 -6,-29 -18,-37 -19,-12 -40,-19 -62,-23 -24,-4 -48,-12 -71,-23 -15,-7 -28,-18 -38,-31 -9,-13 -13,-29 -13,-44 0,-28 13,-55 36,-71 26,-21 58,-31 91,-30 34,-1 68,9 95,30 23,19 37,48 36,78l-59 0c0,-17 -8,-32 -20,-42 -15,-12 -33,-18 -52,-17 -18,-1 -35,3 -50,14 -12,8 -18,22 -18,36 -1,13 6,25 17,32 19,10 39,17 61,21 24,5 48,13 70,23 17,8 31,19 41,33 9,14 14,30 13,47 1,29 -13,57 -37,74 -27,19 -61,29 -95,27 -25,1 -50,-4 -73,-14 -20,-9 -37,-23 -50,-41 -12,-16 -18,-36 -18,-57l59 0c0,19 9,36 24,47 16,12 37,18 58,17 19,1 37,-3 53,-13 13,-8 21,-21 20,-36l0 0zm-335 0c1,-15 -6,-29 -18,-37 -19,-12 -40,-19 -62,-23 -25,-4 -48,-12 -71,-23 -15,-7 -28,-18 -38,-31 -9,-13 -13,-29 -13,-44 0,-28 13,-55 36,-71 26,-21 58,-31 91,-30 34,-1 68,9 95,30 23,19 37,48 36,78l-59 0c0,-17 -7,-32 -20,-42 -15,-12 -33,-18 -52,-17 -18,-1 -35,3 -50,14 -12,8 -18,22 -18,36 -1,13 6,25 17,32 19,10 39,17 61,21 24,5 48,13 71,23 16,8 30,19 41,33 9,14 13,30 13,47 0,29 -13,57 -37,74 -28,19 -62,29 -96,27 -25,1 -50,-4 -73,-14 -20,-9 -37,-23 -49,-41 -12,-16 -19,-36 -19,-57l59 0c1,19 9,36 24,47 17,12 37,18 58,17 19,1 37,-3 53,-13 13,-8 21,-21 21,-36l-1 0zm-438 46c18,0 36,-5 52,-14 16,-9 28,-22 36,-37l0 -71 -46 0c-72,0 -108,21 -108,63 -1,17 6,33 18,44 14,10 31,16 48,15l0 0zm97 45c-4,-12 -7,-24 -8,-36 -25,27 -61,42 -98,42 -30,1 -60,-9 -83,-29 -21,-18 -33,-44 -32,-72 -2,-33 13,-65 40,-84 34,-21 74,-32 115,-29l57 0 0 -27c1,-18 -6,-36 -18,-49 -15,-13 -35,-20 -55,-18 -19,-1 -37,4 -53,15 -13,9 -21,23 -21,39l-58 0c0,-18 6,-36 18,-50 13,-16 30,-30 49,-38 22,-9 45,-14 69,-14 34,-2 67,9 93,30 23,21 35,51 35,82l0 158c-1,25 3,51 12,75l0 5 -62 0zm-548 -231l110 0c27,2 53,-6 75,-23 18,-17 27,-41 25,-66 2,-25 -8,-49 -26,-66 -19,-18 -45,-27 -71,-26l-113 0 0 181zm0 50l0 181 -61 0 0 -462 171 0c43,-3 85,11 119,39 28,26 44,63 42,102 3,39 -13,77 -42,104 -34,26 -77,39 -120,36l-109 0z"/>
   <path class="theme_fill" fill="#1090CF" d="M10930 16049l11543 0c45,0 81,36 81,81l0 1299c0,45 -36,81 -81,81l-11543 0c-45,0 -81,-36 -81,-81l0 -1299c0,-45 36,-81 81,-81z"/>
   <path class="fil5" d="M17547 16983l-71 0 -180 -287 0 287 -70 0 0 -404 70 0 181 287 0 -287 70 0 0 404zm-407 0l-70 0 0 -404 70 0 0 404zm-293 -53c-16,20 -37,35 -61,43 -28,11 -58,16 -88,15 -32,1 -63,-7 -90,-23 -26,-15 -47,-38 -60,-66 -15,-31 -23,-65 -22,-100l0 -32c-3,-51 12,-102 44,-143 30,-35 75,-54 122,-51 38,-2 77,10 107,33 28,25 45,60 48,96l-69 0c-2,-42 -39,-75 -82,-73l-3 0c-28,-1 -55,12 -72,34 -18,30 -27,65 -25,100l0 31c-2,36 8,72 28,102 18,24 47,37 76,36 28,3 56,-6 77,-24l0 -79 -83 0 0 -54 153 0 0 155zm-450 -160c2,-36 -6,-72 -25,-103 -16,-24 -44,-37 -72,-36 -28,-1 -55,13 -71,36 -19,30 -28,65 -27,101l0 23c-2,36 7,72 26,103 16,24 44,38 72,37 29,1 56,-13 72,-36 19,-31 28,-68 25,-104l0 -21zm70 21c1,36 -6,71 -20,104 -12,29 -33,53 -59,69 -26,17 -57,25 -88,24 -31,1 -61,-8 -87,-24 -26,-16 -47,-40 -60,-68 -14,-32 -21,-67 -21,-103l0 -22c-1,-36 6,-72 21,-105 12,-28 33,-52 59,-69 27,-16 57,-25 88,-24 31,-1 61,8 87,24 26,16 47,40 59,68 15,33 22,68 21,104l0 22zm-542 136l184 0 0 56 -254 0 0 -404 70 0 0 348z"/>
   <path class="fil6" d="M19740 15054c-2,0 -4,0 -6,0 -18,0 -37,-4 -54,-12 -16,-7 -30,-18 -41,-32l23 -27c16,22 42,35 69,35 2,0 3,0 4,0 17,0 34,-6 46,-18 13,-14 20,-32 18,-51l0 -22c-17,19 -41,31 -67,31 -2,0 -3,0 -5,-1 0,0 -1,0 -1,0 -29,0 -55,-13 -72,-36 -20,-29 -30,-64 -28,-99 -2,-34 8,-68 28,-96 17,-22 43,-35 71,-35 1,0 2,0 3,0 1,-1 3,-1 4,-1 27,0 52,13 69,34l2 -29 41 0 0 252c1,29 -10,57 -30,78 -20,19 -47,29 -74,29zm-4 -326c-19,0 -37,9 -47,25 -14,22 -20,48 -19,74 -1,24 5,48 18,68 11,16 29,25 48,25 1,0 1,0 2,0 1,0 2,0 3,0 25,0 48,-15 58,-38l0 -117c-11,-23 -33,-37 -58,-37 -1,0 -2,0 -2,0 -1,0 -2,0 -3,0zm776 324l-44 0 0 -357 40 0 2 29c17,-21 43,-34 70,-34 2,0 3,0 5,0 1,0 2,0 3,0 27,0 53,13 70,35 20,29 29,63 27,98l0 4c2,34 -8,67 -27,95 -16,22 -42,36 -70,36 -1,0 -2,-1 -3,-1 -1,1 -3,1 -5,1 -26,0 -51,-11 -68,-30l0 124zm57 -324c-24,0 -46,14 -57,35l0 123c11,22 33,36 57,36 1,0 2,0 3,0 1,0 1,0 2,0 19,0 37,-10 48,-26 14,-22 21,-48 19,-74 1,-24 -5,-49 -19,-69 -11,-16 -29,-25 -48,-25 -1,0 -2,0 -3,0 0,0 -1,0 -2,0zm1838 230c-1,0 -3,0 -4,0 -1,0 -1,0 -2,0 -28,0 -55,-14 -71,-37 -20,-28 -30,-61 -28,-96l0 -3c-2,-34 8,-68 28,-95 17,-23 43,-36 71,-36 1,0 2,0 2,0 2,-1 3,-1 4,-1 26,0 51,12 68,31l0 -134 44 0 0 366 -41 0 -2 -28c-17,21 -42,33 -69,33zm7 -38c1,0 2,0 3,0 25,0 48,-14 58,-37l0 -119c-11,-22 -33,-36 -58,-36 -1,0 -2,0 -3,0 0,0 -1,0 -2,0 -19,0 -37,9 -48,25 -14,22 -20,48 -18,74l0 0c-2,24 5,48 18,68 11,16 29,25 47,25 1,0 2,0 3,0zm-1308 38c-2,0 -4,0 -5,-1 -1,0 -2,0 -3,0 -18,0 -36,-3 -52,-10 -15,-7 -28,-18 -37,-31 -9,-12 -14,-27 -14,-42l44 0c0,13 7,26 18,35 11,8 26,13 40,13 1,0 2,0 4,0 1,0 2,0 3,0 13,0 26,-4 37,-11 9,-5 15,-16 15,-27l0 0c0,-10 -5,-21 -14,-27 -14,-9 -30,-15 -47,-17 -18,-4 -36,-9 -53,-17 -11,-6 -21,-14 -29,-24 -6,-10 -9,-21 -9,-33 0,-21 10,-41 27,-54 18,-14 41,-22 64,-22 1,0 3,1 4,1 2,-1 3,-1 5,-1 24,0 47,8 66,23 18,14 28,36 27,58l-44 0c0,-12 -6,-24 -15,-31 -11,-9 -23,-13 -37,-13 0,0 -1,0 -2,0 -1,0 -2,0 -3,0 -13,0 -24,3 -34,10 -9,7 -14,17 -14,28 -1,9 4,18 13,24 14,7 29,12 45,15 19,4 36,10 54,18 12,5 22,14 30,24 7,11 10,23 10,35 0,22 -10,43 -28,55 -19,14 -43,22 -66,22zm-847 0c-15,0 -30,-7 -41,-18 -11,-15 -16,-33 -15,-51l0 -160 -46 0 0 -34 46 0 0 -62 45 0 0 62 48 0 0 34 -48 0 0 160c-1,8 1,17 6,23 5,6 12,8 19,8 1,0 2,0 3,0 7,0 14,-1 21,-3l0 36c-11,3 -23,4 -34,4 -1,1 -3,1 -4,1zm558 0c-22,0 -43,-8 -59,-22 -16,-14 -25,-34 -24,-55 -1,-24 10,-48 30,-62 23,-15 50,-23 77,-23 3,0 6,0 9,0l43 0 0 -20c1,-13 -4,-27 -14,-37 -10,-8 -23,-13 -37,-13 -1,0 -2,0 -4,0 0,0 -1,0 -2,0 -13,0 -26,4 -37,12 -10,6 -16,17 -16,28l-44 0c0,-13 5,-26 13,-37 10,-12 23,-22 38,-28 15,-7 32,-11 50,-11 0,0 1,0 1,0 2,0 4,0 6,0 23,0 46,8 64,23 17,15 27,38 26,61l0 119c-1,19 2,38 9,56l0 4 -46 0c-4,-9 -6,-18 -6,-27 -19,20 -45,31 -73,31 0,0 0,0 -1,0 -1,1 -2,1 -3,1zm41 -130c-54,0 -81,16 -81,47 0,13 5,25 14,33 10,7 21,11 33,11 1,0 2,0 3,0l0 0c14,0 27,-4 39,-11 12,-6 21,-16 27,-27l0 -53 -35 0zm1118 130c-31,0 -60,-14 -81,-37 -22,-27 -34,-61 -32,-96l0 -3c-1,-24 4,-47 15,-68 9,-19 23,-36 41,-47 18,-10 38,-16 58,-16 1,0 2,0 2,0 2,0 3,0 4,0 31,0 61,13 82,36 22,28 34,62 32,97l0 3c0,23 -4,46 -14,67 -9,19 -24,36 -42,47 -17,11 -38,16 -59,16 -1,0 -1,0 -2,0 -1,1 -2,1 -4,1zm4 -36c0,0 1,0 2,0 20,0 39,-10 51,-27 14,-21 21,-47 20,-73 1,-25 -6,-49 -20,-69 -13,-16 -32,-26 -52,-26 -1,0 -1,0 -2,0 0,0 -1,0 -1,0 -21,0 -40,9 -51,26 -15,22 -22,48 -20,74l0 0c-1,24 6,49 20,69 12,16 31,26 51,26 1,0 1,0 2,0zm-1968 36c-31,0 -61,-14 -81,-37 -23,-27 -34,-61 -33,-96l0 -3c0,-24 5,-47 15,-68 9,-19 24,-36 42,-47 17,-10 37,-16 58,-16 1,0 1,0 2,0 1,0 3,0 4,0 31,0 61,13 81,36 23,28 34,62 33,97l0 3c0,23 -5,46 -15,67 -9,19 -23,36 -41,47 -18,11 -38,16 -59,16 -1,0 -2,0 -2,0 -2,1 -3,1 -4,1zm4 -36c0,0 1,0 2,0 20,0 39,-10 51,-27 14,-21 21,-47 20,-73 1,-25 -6,-49 -21,-69 -12,-16 -31,-26 -51,-26 -1,0 -1,0 -2,0 -1,0 -1,0 -2,0 -20,0 -39,9 -51,26 -14,22 -21,48 -19,74 -2,24 5,49 19,69 12,16 31,26 52,26 0,0 1,0 2,0zm-716 36c-31,0 -60,-14 -81,-37 -22,-27 -34,-61 -32,-96l0 -3c-1,-24 5,-47 15,-68 9,-19 23,-36 41,-47 18,-10 38,-16 58,-16 1,0 2,0 3,0 1,0 2,0 3,0 31,0 61,13 82,36 22,28 34,62 32,97l0 3c1,23 -4,46 -14,67 -9,19 -23,36 -41,47 -18,11 -39,16 -60,16 -1,0 -1,0 -2,0 -1,1 -2,1 -4,1zm4 -36c1,0 1,0 2,0 20,0 40,-10 51,-27 15,-21 22,-47 20,-73 1,-25 -6,-49 -20,-69 -12,-16 -31,-26 -52,-26 0,0 -1,0 -2,0 0,0 -1,0 -1,0 -20,0 -39,9 -51,26 -15,22 -22,48 -20,74l0 0c-1,24 6,49 20,69 12,16 31,26 51,26 1,0 1,0 2,0zm2053 35c-2,0 -4,0 -5,0 -1,0 -2,0 -3,0 -18,0 -36,-3 -52,-11 -15,-6 -28,-17 -37,-30 -9,-13 -14,-28 -14,-43l44 0c1,14 7,27 18,35 12,9 26,13 40,13 1,0 3,0 4,0 1,0 2,0 3,0 13,0 26,-3 37,-10 9,-5 15,-16 15,-27l0 0c0,-10 -5,-21 -14,-27 -14,-9 -30,-15 -47,-17 -18,-4 -36,-9 -53,-17 -11,-6 -21,-14 -29,-24 -6,-10 -9,-21 -9,-33 0,-21 10,-41 27,-54 18,-14 41,-22 64,-22 1,0 3,1 4,1 2,-1 4,-1 5,-1 24,0 47,8 66,23 18,14 28,36 28,58l-45 0c0,-12 -5,-24 -15,-31 -10,-9 -23,-13 -37,-13 0,0 -1,0 -2,0 -1,0 -2,0 -3,0 -12,0 -24,3 -34,10 -9,7 -14,17 -14,28 0,9 4,18 13,24 14,7 29,12 45,15 19,4 37,10 54,18 12,5 22,14 30,24 7,11 10,23 10,35 0,22 -10,43 -28,55 -19,14 -42,21 -66,21zm839 -4l-44 0 0 -258 43 0 1 30c12,-21 35,-35 59,-35 1,0 1,0 2,1 1,-1 2,-1 2,-1 6,0 12,2 17,4l0 41c-7,-1 -14,-2 -21,-2 0,0 0,0 0,0 -2,0 -3,0 -5,0 -24,0 -45,15 -54,37l0 183zm-441 0l-36 0 -63 -195 -60 195 -36 0 -75 -258 44 0 51 193 60 -193 35 0 61 197 49 -197 44 0 -74 258zm-2235 0l-44 0 0 -258 43 0 1 30c12,-21 35,-35 59,-35 1,0 2,0 2,1 1,-1 2,-1 3,-1 6,0 11,2 17,4l0 41c-7,-1 -14,-2 -21,-2 0,0 -1,0 -1,0 -1,0 -3,0 -5,0 -23,0 -45,15 -54,37l0 183zm-533 0l-46 0 0 -347 215 0 0 38 -169 0 0 118 145 0 0 38 -145 0 0 153z"/>
   <path class="theme_fill" fill="#1090CF" d="M17394 18719c2,-36 -7,-72 -26,-103 -16,-24 -43,-37 -72,-36 -28,-1 -55,12 -71,36 -19,30 -28,65 -26,100l0 24c-2,36 7,72 26,103 16,23 43,37 72,36 28,2 55,-12 72,-35 18,-32 27,-68 25,-104l0 -21zm70 21c1,36 -6,71 -21,104 -12,28 -32,52 -58,69 -27,16 -57,25 -88,24 -31,0 -62,-8 -88,-24 -26,-17 -46,-40 -59,-69 -15,-32 -22,-67 -21,-102l0 -23c-1,-36 6,-71 21,-104 12,-29 33,-53 59,-69 26,-17 56,-25 87,-24 31,-1 62,7 88,23 26,17 46,40 59,69 14,32 22,68 21,103l0 23zm-729 -213l116 310 117 -310 90 0 0 404 -70 0 0 -133 7 -178 -119 311 -50 0 -119 -311 7 178 0 133 -70 0 0 -404 91 0zm-176 224l-166 0 0 124 194 0 0 56 -265 0 0 -404 263 0 0 57 -192 0 0 111 166 0 0 56zm-538 -167l0 291 46 0c32,2 63,-11 85,-34 21,-29 32,-64 30,-100l0 -22c2,-36 -8,-71 -29,-100 -20,-24 -51,-37 -83,-35l-49 0zm-70 347l0 -404 119 0c34,0 66,8 95,24 28,16 50,39 65,68 15,31 23,65 22,100l0 20c1,35 -7,70 -22,101 -15,29 -38,52 -66,68 -29,16 -63,24 -97,23l-116 0z"/>
   <path class="theme_fill" fill="#1090CF" d="M2273 2664l0 77 77 0 0 -77 -77 0zm-77 -77l231 0 0 232 -231 0 0 -232zm77 -386l0 77 77 0 0 -77 -77 0zm-77 -77l231 0 0 231 -231 0 0 -231zm540 77l0 77 77 0 0 -77 -77 0zm-77 -77l231 0 0 231 -231 0 0 -231zm154 617l0 -154 -77 0 0 154 77 0zm-154 -308l77 0 0 77 77 0 0 -77 77 0 0 77 -77 0 0 77 77 0 0 154 -77 0 0 78 -77 0 0 -78 -154 0 0 78 -78 0 0 -155 155 0 0 -77 77 0 0 -77 -77 0 0 -77zm-232 0l155 0 0 154 -78 0 0 -77 -77 0 0 -77zm77 -232l78 0 0 154 -78 0 0 -154zm-308 232l77 0 0 77 -77 0 0 -77z"/>
   <path class="theme_fill" fill="#1090CF" d="M30842 2654c-80,0 -144,-65 -144,-145 1,-80 66,-144 146,-144 80,0 144,65 144,145 -1,80 -66,144 -146,144zm289 -107c2,-12 2,-25 2,-37 0,-13 0,-25 -2,-38l82 -64c7,-6 9,-16 4,-24l-77 -134c-5,-8 -15,-12 -24,-9l-97 39c-20,-15 -42,-28 -65,-38l-15 -102c-1,-9 -9,-16 -19,-16l-155 0c-10,0 -18,7 -19,16l-15 102c-23,10 -45,23 -65,38l-97 -39c-9,-3 -19,1 -24,9l-77 134c-5,8 -3,19 5,24l82 64c-5,25 -5,50 -1,75l-82 64c-7,6 -9,16 -5,25l78 133c5,9 15,12 24,9l96 -39c20,16 42,28 66,38l14 102c2,10 10,17 20,17l155 0c9,0 18,-7 19,-17l14 -102c24,-10 46,-22 66,-38l96 39c9,3 20,0 24,-9l78 -133c5,-9 3,-19 -5,-25l-81 -64 0 0z"/>
   <circle class="fil0 str0" cx="769" cy="11700" r="193"/>
  </g>
 </svg>
