<?xml version="1.0" standalone="no"?>
<!DOCTYPE svg PUBLIC "-//W3C//DTD SVG 1.1//EN" "http://www.w3.org/Graphics/SVG/1.1/DTD/svg11.dtd">
<svg stroke-width="0.501" stroke-linejoin="bevel" fill-rule="evenodd" xmlns:xlink="http://www.w3.org/1999/xlink" xmlns="http://www.w3.org/2000/svg" version="1.1" overflow="visible" width="403.371pt" height="283.465pt" viewBox="0 0 403.371 283.465">
 <defs>
	</defs>
 <g id="Document" fill="none" stroke="black" font-family="Times New Roman" font-size="16" transform="scale(1 -1)">
  <g id="Spread" transform="translate(0 -283.465)">
   <g id="Layer 1">
    <g id="Group" stroke-linejoin="miter" stroke="none" stroke-width="0.423" stroke-miterlimit="79.8403193612775">
     <path d="M 262.39,85.846 L 141.166,85.846 C 140.697,85.846 140.315,86.232 140.315,86.7 L 140.315,100.344 C 140.315,100.815 140.697,101.196 141.166,101.196 L 262.39,101.196 C 262.859,101.196 263.241,100.815 263.241,100.344 L 263.241,86.7 C 263.241,86.232 262.859,85.846 262.39,85.846 Z" fill="#1e96dc" class="theme_fill"/>
     <path d="M 193.631,91.978 L 195.554,91.978 L 195.554,91.392 L 192.892,91.392 L 192.892,95.634 L 193.631,95.634 Z M 199.323,93.4 C 199.331,93.025 199.254,92.651 199.104,92.308 C 198.976,92.012 198.758,91.758 198.491,91.581 C 198.212,91.414 197.893,91.324 197.569,91.332 C 197.243,91.327 196.924,91.417 196.646,91.582 C 196.375,91.758 196.154,92.011 196.024,92.304 C 195.872,92.642 195.792,93.007 195.797,93.379 L 195.797,93.617 C 195.792,93.995 195.866,94.371 196.019,94.714 C 196.151,95.011 196.368,95.265 196.64,95.442 C 196.917,95.61 197.235,95.7 197.566,95.696 C 197.885,95.7 198.208,95.611 198.484,95.448 C 198.751,95.273 198.971,95.019 199.099,94.725 C 199.25,94.386 199.33,94.013 199.323,93.636 Z M 198.586,93.625 C 198.604,94.005 198.511,94.378 198.316,94.703 C 198.151,94.955 197.863,95.094 197.566,95.083 C 197.267,95.093 196.982,94.952 196.818,94.707 C 196.619,94.39 196.523,94.022 196.537,93.645 L 196.537,93.4 C 196.517,93.024 196.611,92.647 196.812,92.32 C 196.979,92.071 197.268,91.926 197.569,91.941 C 197.864,91.924 198.154,92.064 198.319,92.311 C 198.513,92.641 198.608,93.021 198.586,93.4 Z M 203.309,91.943 C 203.142,91.733 202.923,91.575 202.671,91.486 C 202.375,91.38 202.058,91.327 201.747,91.332 C 201.41,91.324 201.085,91.411 200.798,91.574 C 200.522,91.736 200.303,91.977 200.169,92.263 C 200.011,92.598 199.931,92.954 199.932,93.318 L 199.932,93.648 C 199.9,94.187 200.068,94.721 200.394,95.156 C 200.717,95.518 201.192,95.719 201.679,95.693 C 202.087,95.713 202.489,95.592 202.802,95.339 C 203.094,95.085 203.278,94.721 203.305,94.333 L 202.584,94.333 C 202.571,94.55 202.47,94.763 202.298,94.907 C 202.137,95.053 201.913,95.118 201.696,95.1 C 201.401,95.113 201.113,94.982 200.942,94.744 C 200.747,94.428 200.658,94.059 200.674,93.692 L 200.674,93.368 C 200.653,92.991 200.755,92.615 200.965,92.304 C 201.156,92.05 201.455,91.91 201.767,91.922 C 202.06,91.893 202.349,91.984 202.578,92.178 L 202.578,93.007 L 201.703,93.007 L 201.703,93.567 L 203.309,93.567 Z M 206.38,91.392 L 205.646,91.392 L 205.646,95.634 L 206.38,95.634 Z M 210.658,91.392 L 209.921,91.392 L 208.029,94.403 L 208.029,91.392 L 207.29,91.392 L 207.29,95.634 L 208.029,95.634 L 209.926,92.612 L 209.926,95.634 L 210.658,95.634 Z" fill="#ffffff"/>
     <path d="M 193.898,70.929 L 193.898,75.17 L 195.154,75.17 C 195.502,75.176 195.845,75.088 196.15,74.92 C 196.437,74.753 196.678,74.508 196.826,74.208 C 196.989,73.884 197.075,73.52 197.066,73.153 L 197.066,72.942 C 197.075,72.571 196.989,72.212 196.825,71.876 C 196.675,71.582 196.432,71.334 196.14,71.176 C 195.829,71.004 195.478,70.918 195.12,70.929 Z M 194.636,74.575 L 194.636,71.517 L 195.117,71.517 C 195.45,71.493 195.784,71.626 196.007,71.876 C 196.236,72.175 196.343,72.548 196.326,72.918 L 196.326,73.154 C 196.347,73.533 196.242,73.903 196.024,74.208 C 195.802,74.459 195.486,74.592 195.154,74.575 Z M 200.276,72.818 L 198.543,72.818 L 198.543,71.513 L 200.573,71.513 L 200.573,70.929 L 197.8,70.929 L 197.8,75.17 L 200.557,75.17 L 200.557,74.575 L 198.543,74.575 L 198.543,73.403 L 200.277,73.403 Z M 202.134,75.17 L 203.356,71.92 L 204.577,75.17 L 205.533,75.17 L 205.533,70.929 L 204.794,70.929 L 204.794,72.325 L 204.865,74.196 L 203.616,70.929 L 203.083,70.929 L 201.837,74.191 L 201.905,72.325 L 201.905,70.929 L 201.175,70.929 L 201.175,75.17 Z M 209.784,72.938 C 209.793,72.56 209.72,72.186 209.571,71.841 C 209.44,71.543 209.228,71.293 208.952,71.117 C 208.68,70.947 208.356,70.859 208.036,70.866 C 207.708,70.863 207.389,70.951 207.115,71.118 C 206.837,71.293 206.622,71.542 206.488,71.836 C 206.335,72.173 206.26,72.544 206.267,72.914 L 206.267,73.151 C 206.256,73.531 206.333,73.903 206.483,74.248 C 206.617,74.545 206.831,74.802 207.109,74.974 C 207.381,75.148 207.707,75.233 208.032,75.228 C 208.351,75.233 208.672,75.149 208.944,74.978 C 209.223,74.809 209.435,74.557 209.569,74.265 C 209.717,73.921 209.793,73.549 209.787,73.175 Z M 209.049,73.158 C 209.075,73.539 208.984,73.917 208.788,74.242 C 208.61,74.484 208.326,74.629 208.029,74.618 C 207.727,74.627 207.451,74.484 207.277,74.242 C 207.08,73.928 206.982,73.553 207.008,73.184 L 207.008,72.938 C 206.979,72.558 207.076,72.179 207.276,71.854 C 207.447,71.607 207.728,71.463 208.037,71.474 C 208.333,71.46 208.615,71.6 208.79,71.846 C 208.988,72.173 209.076,72.555 209.049,72.938 Z" fill="#1e96dc" class="theme_fill"/>
    </g>
   </g>
  </g>
 </g>
</svg>
