<?xml version="1.0" standalone="no"?>
<!DOCTYPE svg PUBLIC "-//W3C//DTD SVG 1.1//EN" "http://www.w3.org/Graphics/SVG/1.1/DTD/svg11.dtd">
<svg stroke-width="0.501" stroke-linejoin="bevel" fill-rule="evenodd" xmlns:xlink="http://www.w3.org/1999/xlink" xmlns="http://www.w3.org/2000/svg" version="1.1" overflow="visible" width="110.551pt" height="234.142pt" viewBox="0 0 110.551 234.142">
 <defs>
	</defs>
 <g id="Document" fill="none" stroke="black" font-family="Times New Roman" font-size="16" transform="scale(1 -1)">
  <g id="Spread" transform="translate(0 -234.142)">
   <g id="Layer 1">
    <path d="M 50.046,59.667 L 50.046,62.484 L 50.881,62.484 C 51.112,62.488 51.34,62.429 51.542,62.317 C 51.733,62.207 51.893,62.043 51.992,61.846 C 52.099,61.629 52.157,61.387 52.151,61.144 L 52.151,61.004 C 52.157,60.757 52.099,60.518 51.991,60.296 C 51.891,60.099 51.73,59.936 51.535,59.83 C 51.329,59.716 51.096,59.66 50.858,59.667 Z M 50.537,62.088 L 50.537,60.057 L 50.856,60.057 C 51.078,60.041 51.299,60.13 51.447,60.296 C 51.6,60.495 51.67,60.741 51.659,60.988 L 51.659,61.145 C 51.673,61.396 51.604,61.642 51.459,61.846 C 51.311,62.011 51.101,62.099 50.881,62.088 Z M 54.283,60.922 L 53.132,60.922 L 53.132,60.054 L 54.48,60.054 L 54.48,59.667 L 52.639,59.667 L 52.639,62.484 L 54.469,62.484 L 54.469,62.088 L 53.132,62.088 L 53.132,61.31 L 54.284,61.31 Z M 55.517,62.484 L 56.329,60.324 L 57.139,62.484 L 57.774,62.484 L 57.774,59.667 L 57.284,59.667 L 57.284,60.593 L 57.331,61.837 L 56.501,59.667 L 56.148,59.667 L 55.32,61.834 L 55.365,60.593 L 55.365,59.667 L 54.879,59.667 L 54.879,62.484 Z M 60.599,61.001 C 60.604,60.75 60.556,60.502 60.457,60.273 C 60.37,60.075 60.229,59.908 60.046,59.792 C 59.864,59.678 59.649,59.62 59.436,59.625 C 59.219,59.622 59.006,59.681 58.825,59.793 C 58.641,59.908 58.498,60.074 58.409,60.269 C 58.307,60.493 58.258,60.739 58.262,60.985 L 58.262,61.143 C 58.255,61.395 58.305,61.642 58.406,61.87 C 58.495,62.069 58.637,62.238 58.821,62.354 C 59.003,62.468 59.218,62.525 59.433,62.521 C 59.646,62.525 59.859,62.469 60.041,62.356 C 60.225,62.243 60.366,62.076 60.455,61.882 C 60.555,61.654 60.604,61.406 60.6,61.158 Z M 60.11,61.147 C 60.127,61.4 60.066,61.651 59.935,61.866 C 59.818,62.028 59.63,62.125 59.432,62.116 C 59.232,62.123 59.049,62.028 58.932,61.866 C 58.802,61.658 58.737,61.41 58.754,61.164 L 58.754,61.001 C 58.735,60.748 58.798,60.497 58.931,60.282 C 59.046,60.117 59.233,60.021 59.437,60.028 C 59.634,60.02 59.821,60.112 59.937,60.276 C 60.068,60.493 60.128,60.746 60.11,61.001 Z" fill-rule="evenodd" stroke-linejoin="miter" stroke="none" stroke-width="0.281" fill="#1e96dc" marker-start="none" marker-end="none" stroke-miterlimit="79.8403193612775" class="theme_fill"/>
    <path d="M 100.192,210.619 C 100.206,210.709 100.209,210.803 100.21,210.896 C 100.21,210.988 100.205,211.08 100.189,211.171 L 100.792,211.638 C 100.843,211.683 100.86,211.755 100.828,211.82 L 100.257,212.8 C 100.222,212.861 100.146,212.886 100.082,212.863 L 99.375,212.579 C 99.228,212.693 99.065,212.787 98.894,212.857 L 98.787,213.607 C 98.774,213.676 98.717,213.727 98.643,213.726 L 97.505,213.726 C 97.433,213.727 97.375,213.676 97.367,213.607 L 97.26,212.857 C 97.088,212.786 96.926,212.693 96.778,212.579 L 96.07,212.863 C 96.005,212.888 95.929,212.861 95.895,212.8 L 95.327,211.82 C 95.289,211.757 95.305,211.681 95.363,211.638 L 95.962,211.171 C 95.93,210.989 95.929,210.802 95.96,210.619 L 95.358,210.151 C 95.305,210.107 95.289,210.031 95.322,209.972 L 95.891,208.992 C 95.927,208.93 96.001,208.904 96.066,208.928 L 96.776,209.209 C 96.922,209.097 97.085,209.005 97.256,208.934 L 97.364,208.183 C 97.374,208.114 97.433,208.062 97.504,208.061 L 98.643,208.061 C 98.716,208.058 98.774,208.113 98.784,208.183 L 98.889,208.934 C 99.063,209.005 99.224,209.097 99.372,209.209 L 100.078,208.928 C 100.143,208.903 100.219,208.93 100.253,208.992 L 100.823,209.972 C 100.86,210.029 100.843,210.11 100.787,210.151 L 100.191,210.619 Z M 98.076,209.833 C 97.49,209.836 97.017,210.314 97.019,210.899 C 97.021,211.485 97.497,211.958 98.084,211.957 C 98.67,211.956 99.143,211.482 99.143,210.896 C 99.139,210.309 98.663,209.833 98.076,209.833 Z" fill-rule="evenodd" stroke-linejoin="miter" stroke="none" stroke-width="0.281" fill="#1e96dc" marker-start="none" marker-end="none" stroke-miterlimit="79.8403193612775"  class="theme_fill"/>
    <path d="M 9.354,211.178 L 9.921,211.178 L 9.921,210.61 L 9.354,210.61 L 9.354,211.178 M 11.62,212.876 L 12.186,212.876 L 12.186,211.745 L 11.62,211.745 L 11.62,212.876 M 11.053,211.178 L 12.186,211.178 L 12.186,210.046 L 11.62,210.046 L 11.62,210.61 L 11.053,210.61 L 11.053,211.178 M 12.751,211.178 L 13.318,211.178 L 13.318,210.61 L 13.887,210.61 L 13.887,211.178 L 14.451,211.178 L 14.451,210.61 L 13.887,210.61 L 13.887,210.046 L 14.451,210.046 L 14.451,208.913 L 13.887,208.913 L 13.887,208.347 L 13.318,208.347 L 13.318,208.913 L 12.186,208.913 L 12.186,208.347 L 11.62,208.347 L 11.62,209.48 L 12.751,209.48 L 12.751,210.046 L 13.318,210.046 L 13.318,210.61 L 12.751,210.61 L 12.751,211.178 M 13.887,208.913 L 13.887,210.046 L 13.318,210.046 L 13.318,208.913 L 13.887,208.913 M 12.751,213.445 L 14.451,213.445 L 14.451,211.745 L 12.751,211.745 L 12.751,213.445 M 13.318,212.876 L 13.318,212.309 L 13.887,212.309 L 13.887,212.876 L 13.318,212.876 M 9.354,213.445 L 11.053,213.445 L 11.053,211.745 L 9.354,211.745 L 9.354,213.445 M 9.921,212.876 L 9.921,212.309 L 10.486,212.309 L 10.486,212.876 L 9.921,212.876 M 9.354,210.046 L 11.053,210.046 L 11.053,208.347 L 9.354,208.347 L 9.354,210.046 M 9.921,209.48 L 9.921,208.913 L 10.486,208.913 L 10.486,209.48 Z" fill-rule="evenodd" stroke-linejoin="miter" stroke="none" stroke-width="0.281" fill="#1e96dc" marker-start="none" marker-end="none" stroke-miterlimit="79.8403193612775" class="theme_fill"/>
    <path d="M 95.538,69.575 L 15.023,69.575 C 14.711,69.575 14.457,69.83 14.457,70.142 L 14.457,79.204 C 14.457,79.516 14.711,79.77 15.023,79.77 L 95.538,79.77 C 95.85,79.77 96.104,79.516 96.104,79.204 L 96.104,70.142 C 96.104,69.83 95.85,69.575 95.538,69.575 Z" fill-rule="evenodd" stroke-linejoin="miter" stroke="none" stroke-width="0.281" fill="#1e96dc" marker-start="none" marker-end="none" stroke-miterlimit="79.8403193612775"  class="theme_fill"/>
    <path d="M 49.869,73.647 L 51.146,73.647 L 51.146,73.258 L 49.378,73.258 L 49.378,76.075 L 49.869,76.075 Z M 53.65,74.592 C 53.655,74.343 53.604,74.094 53.505,73.866 C 53.42,73.67 53.275,73.501 53.098,73.383 C 52.912,73.273 52.7,73.212 52.485,73.217 C 52.269,73.214 52.056,73.275 51.872,73.384 C 51.693,73.501 51.546,73.669 51.459,73.864 C 51.358,74.088 51.305,74.331 51.308,74.578 L 51.308,74.736 C 51.305,74.986 51.354,75.237 51.456,75.465 C 51.543,75.662 51.688,75.83 51.868,75.948 C 52.052,76.059 52.264,76.119 52.483,76.116 C 52.695,76.119 52.909,76.06 53.092,75.952 C 53.27,75.835 53.416,75.667 53.501,75.472 C 53.601,75.246 53.654,74.998 53.65,74.748 Z M 53.161,74.741 C 53.173,74.993 53.112,75.242 52.981,75.458 C 52.871,75.624 52.68,75.717 52.483,75.709 C 52.284,75.716 52.095,75.622 51.985,75.459 C 51.854,75.249 51.79,75.005 51.799,74.754 L 51.799,74.592 C 51.786,74.341 51.849,74.092 51.983,73.874 C 52.093,73.708 52.285,73.613 52.485,73.622 C 52.681,73.611 52.874,73.704 52.982,73.868 C 53.113,74.087 53.175,74.34 53.161,74.592 Z M 56.297,73.623 C 56.187,73.484 56.041,73.379 55.873,73.321 C 55.677,73.25 55.467,73.214 55.259,73.217 C 55.036,73.212 54.82,73.271 54.63,73.378 C 54.447,73.487 54.301,73.646 54.212,73.837 C 54.107,74.058 54.054,74.295 54.055,74.537 L 54.055,74.756 C 54.033,75.115 54.145,75.469 54.361,75.757 C 54.576,75.999 54.891,76.131 55.215,76.115 C 55.486,76.128 55.753,76.047 55.961,75.88 C 56.155,75.71 56.277,75.469 56.295,75.211 L 55.816,75.211 C 55.808,75.356 55.74,75.497 55.626,75.593 C 55.519,75.689 55.37,75.733 55.225,75.721 C 55.03,75.73 54.839,75.643 54.725,75.484 C 54.595,75.274 54.537,75.03 54.547,74.785 L 54.547,74.57 C 54.534,74.321 54.601,74.07 54.74,73.863 C 54.868,73.695 55.067,73.602 55.273,73.609 C 55.468,73.591 55.66,73.651 55.812,73.779 L 55.812,74.331 L 55.23,74.331 L 55.23,74.702 L 56.297,74.702 Z M 58.338,73.258 L 57.85,73.258 L 57.85,76.075 L 58.338,76.075 Z M 61.179,73.258 L 60.689,73.258 L 59.432,75.258 L 59.432,73.258 L 58.941,73.258 L 58.941,76.075 L 59.432,76.075 L 60.693,74.068 L 60.693,76.075 L 61.179,76.075 Z" fill-rule="evenodd" stroke-linejoin="miter" stroke="none" stroke-width="0.281" fill="#ffffff" marker-start="none" marker-end="none" stroke-miterlimit="79.8403193612775"/>
   </g>
  </g>
 </g>
</svg>
