<?xml version="1.0" encoding="UTF-8"?>
<!DOCTYPE svg PUBLIC "-//W3C//DTD SVG 1.1//EN" "http://www.w3.org/Graphics/SVG/1.1/DTD/svg11.dtd">
<svg xmlns="http://www.w3.org/2000/svg" xml:space="preserve" width="111mm" height="234mm" version="1.1" style="shape-rendering:geometricPrecision; text-rendering:geometricPrecision; image-rendering:optimizeQuality; fill-rule:evenodd; clip-rule:evenodd"
viewBox="0 0 11100 23400"
 xmlns:xlink="http://www.w3.org/1999/xlink">
 <defs>
  <style type="text/css">
   <![CDATA[
    .str0 {stroke:#777777;stroke-width:70.56}
    .fil0 {fill:none}
    .fil1 {fill:#1090CF;fill-rule:nonzero}
    .fil4 {fill:#252626;fill-rule:nonzero}
    .fil6 {fill:#84807B;fill-rule:nonzero}
    .fil2 {fill:#AEAAA7;fill-rule:nonzero}
    .fil3 {fill:#E9E9E7;fill-rule:nonzero}
    .fil5 {fill:#FEFEFE;fill-rule:nonzero}
   ]]>
  </style>
 </defs>
 <g>
   <g>
    <rect class="fil0 str0" x="94" y="90" width="10911" height="23220" rx="688" ry="689"/>
    <rect class="fil0 str0" x="533" y="1551" width="10033" height="20362"/>
    <rect class="fil0 str0" x="4613" y="720" width="1873" height="243" rx="122" ry="122"/>
   </g>
   <path class="theme_fill" fill="#1090CF" d="M1168 2603l0 63 62 0 0 -63 -62 0zm-62 -62l186 0 0 187 -186 0 0 -187zm62 -310l0 62 62 0 0 -62 -62 0zm-62 -62l186 0 0 186 -186 0 0 -186zm435 62l0 62 62 0 0 -62 -62 0zm-62 -62l186 0 0 186 -186 0 0 -186zm124 497l0 -125 -62 0 0 125 62 0zm-124 -249l62 0 0 62 62 0 0 -62 62 0 0 62 -62 0 0 62 62 0 0 125 -62 0 0 62 -62 0 0 -62 -124 0 0 62 -62 0 0 -125 124 0 0 -62 62 0 0 -62 -62 0 0 -62zm-187 0l125 0 0 124 -62 0 0 -62 -63 0 0 -62zm63 -186l62 0 0 124 -62 0 0 -124zm-249 186l62 0 0 62 -62 0 0 -62z"/>
   <path class="theme_fill" fill="#1090CF" d="M9711 2565c-64,-1 -116,-53 -116,-117 1,-65 53,-116 118,-116 63,0 115,52 115,116 0,65 -52,117 -117,117zm232 -86c2,-10 2,-21 2,-31 0,-10 -1,-20 -2,-30l66 -51c6,-5 7,-13 4,-20l-63 -107c-4,-7 -12,-10 -19,-7l-77 31c-17,-13 -34,-23 -53,-30l-12 -83c-1,-7 -8,-13 -15,-13l-125 0c-8,0 -14,6 -15,13l-12 83c-19,7 -37,17 -53,30l-77 -31c-8,-3 -16,0 -20,7l-62 107c-4,7 -2,15 4,20l66 51c-4,20 -4,41 0,61l-66 51c-6,5 -8,13 -4,20l62 107c4,7 12,10 19,7l78 -31c16,12 34,23 52,30l12 82c1,8 8,14 16,14l125 0c7,0 14,-6 15,-14l11 -82c19,-7 37,-18 53,-30l78 31c7,3 15,0 19,-7l62 -107c4,-7 3,-16 -4,-20l-65 -51 0 0z"/>
   <path class="fil2" d="M4574 8278c-62,0 -121,-21 -169,-61 -46,-43 -71,-103 -69,-166l0 -422 155 0 0 425c2,70 35,105 98,105 2,0 4,0 7,0 24,0 48,-9 65,-26 19,-25 28,-55 25,-86l0 -418 154 0 0 419c1,43 -9,86 -30,123 -20,35 -51,63 -87,80 -40,18 -83,27 -127,27 -2,0 -5,0 -7,0 -5,0 -10,0 -15,0zm2511 0c-70,0 -138,-28 -188,-77 -53,-59 -82,-135 -81,-214l0 -55c-1,-57 10,-114 33,-165 21,-45 54,-83 96,-109 42,-25 89,-38 138,-38 2,0 4,0 6,0 5,0 11,-1 17,-1 60,0 119,20 168,56 47,41 75,100 77,163l-148 0c-2,-29 -14,-56 -34,-77 -20,-15 -43,-23 -68,-23 -2,0 -5,0 -7,1 -1,0 -2,0 -3,0 -35,0 -68,18 -87,49 -23,43 -34,91 -32,140l0 39c-3,50 8,100 33,144 22,31 57,48 94,48 3,0 6,0 9,0 3,0 7,1 10,1 29,0 57,-10 79,-28l0 -99 -107 0 0 -106 262 0 0 263c-29,29 -65,51 -104,63 -47,16 -96,25 -146,25 -1,0 -3,0 -5,0 -4,0 -8,0 -12,0zm-3110 0c-49,0 -98,-13 -140,-38 -43,-25 -77,-63 -99,-107 -24,-50 -37,-105 -37,-161l0 -36c-1,-57 11,-113 35,-165 21,-46 55,-85 98,-111 43,-26 92,-39 142,-39 2,0 3,0 5,0 2,0 3,0 5,0 49,0 98,13 140,38 43,27 77,65 99,110 24,51 37,107 36,164l0 29c1,57 -11,114 -35,166 -21,46 -55,84 -98,111 -43,25 -92,39 -141,39 -2,0 -3,0 -5,0 -2,0 -3,0 -5,0zm8 -537c-1,0 -3,0 -4,0 -77,0 -118,58 -122,174l-1 47c-3,50 8,100 31,145 19,31 52,50 88,50 2,0 3,0 5,0 1,0 2,0 3,0 36,0 69,-19 87,-49 24,-44 35,-93 32,-143l0 -29c3,-51 -8,-101 -32,-145 -18,-31 -52,-50 -87,-50zm3716 537c-49,0 -97,-13 -140,-38 -42,-25 -77,-63 -98,-107 -25,-50 -38,-105 -38,-161l0 -36c-1,-57 11,-113 35,-165 21,-46 55,-85 99,-111 43,-26 92,-40 142,-40 1,0 3,1 4,1 2,0 3,-1 5,-1 49,0 98,14 140,39 43,27 78,65 99,110 25,51 37,107 36,164l0 29c1,57 -11,114 -35,166 -21,46 -55,84 -98,111 -43,25 -92,39 -141,39 -2,0 -3,0 -5,0 -2,0 -3,0 -5,0zm8 -537c-1,0 -3,0 -4,0 -77,0 -118,58 -122,174l-1 47c-3,50 8,100 31,145 19,31 52,50 88,50 2,0 4,0 5,0 1,0 2,0 3,0 36,0 69,-19 87,-49 24,-44 35,-93 32,-143l0 -29c3,-51 -8,-101 -32,-145 -18,-31 -51,-50 -87,-50zm-1243 537c-49,0 -97,-13 -139,-38 -43,-25 -77,-63 -99,-107 -24,-50 -37,-105 -37,-161l0 -36c-1,-57 10,-113 34,-165 21,-46 56,-85 99,-111 43,-26 92,-40 142,-40 1,0 3,1 5,1 1,0 3,-1 4,-1 50,0 98,14 141,39 43,27 77,65 99,110 24,51 36,107 35,164l1 29c1,57 -11,114 -35,166 -21,46 -56,84 -99,111 -42,25 -91,39 -141,39 -1,0 -3,0 -4,0 -2,0 -4,0 -6,0zm8 -537c-1,0 -2,0 -3,0 -78,0 -118,58 -123,174l0 47c-3,50 8,100 31,145 18,31 52,50 88,50 2,0 3,0 5,0 1,0 2,0 3,0 35,0 68,-19 87,-49 23,-44 34,-93 32,-143l0 -29c3,-51 -8,-101 -32,-145 -19,-31 -52,-50 -88,-50zm-302 528l-423 0 0 -640 155 0 0 521 268 0 0 119zm-718 0l-165 0 -113 -226 -83 0 0 226 -155 0 0 -640 252 0c6,0 11,0 17,0 57,0 114,18 161,51 43,34 67,87 64,142 2,39 -8,77 -27,111 -20,32 -50,56 -84,71l133 258 0 7zm-361 -521l0 176 97 0c2,0 5,0 7,0 22,0 43,-8 59,-23 16,-18 24,-41 22,-65 2,-23 -6,-47 -22,-65 -16,-15 -38,-23 -60,-23 -2,0 -4,0 -6,0l-97 0zm-1614 521l-156 0 0 -230 -206 -410 166 0 118 278 118 -278 166 0 -206 410 0 230z"/>
   <polygon class="fil3" points="1077,11573 10023,11573 10023,11542 1077,11542 "/>
   <path class="fil4" d="M2405 11185l-45 0 0 -372 45 0 0 372zm-169 -332c-1,-6 2,-13 6,-18 5,-5 13,-8 20,-8 8,0 15,3 20,8 5,5 7,12 7,18 0,7 -2,14 -7,19 -5,5 -13,7 -20,7 -7,0 -14,-2 -20,-7 -4,-5 -7,-12 -6,-19zm48 332l-45 0 0 -262 45 0 0 262zm-231 -34c14,0 28,-4 40,-11 12,-6 21,-16 27,-28l0 -54 -35 0c-55,0 -82,16 -82,48 -1,13 4,25 14,33 10,9 23,13 36,12l0 0zm74 34c-3,-8 -5,-18 -6,-27 -19,21 -46,32 -75,32 -23,1 -46,-7 -63,-22 -17,-14 -26,-34 -25,-55 -1,-25 10,-49 31,-64 26,-17 57,-25 88,-23l43 0 0 -20c1,-14 -4,-28 -14,-38 -11,-10 -26,-15 -41,-14 -15,0 -29,4 -41,12 -9,7 -16,18 -16,30l-45 0c1,-14 5,-27 14,-38 10,-13 23,-23 38,-29 16,-7 34,-11 52,-11 26,-1 51,7 71,23 18,16 28,39 27,62l0 121c-1,20 2,39 9,57l0 4 -47 0zm-554 -262l1 29c19,-23 48,-35 78,-34 31,-3 61,14 74,42 9,-12 21,-23 35,-30 15,-8 32,-12 49,-12 58,0 87,31 88,92l0 175 -45 0 0 -173c1,-15 -3,-30 -13,-42 -12,-10 -27,-15 -43,-14 -15,0 -30,5 -41,15 -12,11 -18,25 -20,40l0 174 -45 0 0 -171c4,-28 -14,-53 -42,-58 -4,0 -9,0 -14,0 -26,-2 -50,13 -60,38l0 191 -45 0 0 -262 43 0zm-86 131l-119 0 0 -37 119 0 0 37zm-169 -32l-153 0 0 125 177 0 0 38 -224 0 0 -353 222 0 0 39 -175 0 0 113 153 0 0 38z"/>
   <polygon class="fil3" points="1077,13435 10023,13435 10023,13404 1077,13404 "/>
   <path class="fil4" d="M3057 12919c-1,24 5,49 19,69 11,17 30,26 50,26 27,1 52,-14 63,-38l0 -121c-12,-24 -36,-38 -62,-37 -20,-1 -40,8 -51,25 -14,23 -21,49 -19,76l0 0zm-45 -6c-1,-34 9,-68 29,-97 17,-23 45,-37 75,-36 28,-1 54,10 73,31l0 -136 45 0 0 372 -42 0 -2 -28c-18,22 -46,34 -75,33 -29,0 -57,-14 -74,-38 -20,-28 -30,-62 -29,-97l0 -4zm-25 -88c-8,-1 -15,-2 -22,-2 -27,-2 -51,13 -60,38l0 186 -45 0 0 -262 43 0 1 30c13,-22 37,-36 63,-35 7,-1 13,1 20,3l0 42zm-377 94c-1,25 6,49 20,70 13,17 33,27 54,26 22,1 42,-9 55,-26 14,-23 21,-49 20,-76 1,-24 -6,-49 -21,-69 -12,-18 -33,-28 -54,-27 -21,-1 -41,9 -54,26 -15,22 -22,49 -20,76l0 0zm-45 -6c-1,-24 5,-47 15,-69 9,-19 24,-36 42,-48 19,-11 40,-17 62,-16 33,-1 65,12 86,37 24,28 35,63 34,99l0 3c0,23 -5,47 -15,68 -9,20 -24,36 -42,48 -19,11 -41,17 -63,17 -32,1 -64,-13 -86,-38 -23,-27 -35,-62 -33,-97l0 -4zm-129 72l50 -200 45 0 -76 262 -37 0 -63 -199 -62 199 -37 0 -76 -262 45 0 51 196 61 -196 37 0 62 200zm-336 -8c1,-11 -4,-21 -13,-28 -15,-9 -31,-15 -48,-17 -19,-4 -37,-10 -54,-18 -12,-5 -22,-13 -30,-24 -6,-10 -9,-22 -9,-33 0,-22 10,-42 27,-55 20,-15 45,-23 70,-22 26,-1 52,7 72,23 18,14 28,36 28,59l-45 0c0,-13 -6,-24 -16,-32 -11,-9 -25,-14 -39,-13 -14,-1 -27,3 -38,10 -9,7 -15,17 -14,28 -1,10 4,20 13,25 14,7 30,13 46,15 19,4 37,10 54,18 13,6 23,15 31,26 7,10 11,23 10,35 1,23 -10,44 -28,57 -21,15 -47,22 -73,21 -19,0 -38,-4 -56,-11 -15,-7 -28,-18 -38,-31 -9,-13 -13,-28 -13,-44l45 0c0,14 6,27 18,36 12,9 28,14 44,13 14,1 29,-3 41,-10 10,-6 16,-16 15,-28l0 0zm-256 0c1,-11 -4,-21 -13,-28 -15,-9 -31,-15 -48,-17 -19,-4 -37,-10 -54,-18 -12,-5 -22,-13 -30,-24 -6,-10 -10,-22 -9,-33 0,-22 10,-42 27,-55 20,-15 44,-23 70,-22 26,-1 51,7 72,23 18,14 28,36 28,59l-45 0c0,-13 -6,-24 -16,-32 -11,-9 -25,-14 -39,-13 -14,-1 -27,3 -38,10 -9,7 -14,17 -14,28 -1,10 4,20 13,25 14,7 30,13 46,15 19,4 37,10 55,18 12,6 23,15 31,26 7,10 10,23 10,35 0,23 -10,44 -28,57 -22,15 -47,22 -73,21 -20,0 -39,-4 -56,-11 -16,-7 -29,-18 -38,-31 -9,-13 -14,-28 -14,-44l45 0c0,14 7,27 18,36 13,9 28,14 44,13 15,1 29,-3 41,-10 10,-6 16,-16 15,-28l0 0zm-335 36c14,0 28,-4 40,-11 12,-7 22,-17 28,-29l0 -53 -36 0c-55,0 -82,16 -82,48 -1,12 4,25 14,33 10,8 23,12 36,12l0 0zm75 34c-4,-9 -6,-18 -7,-28 -19,21 -46,33 -74,33 -24,1 -46,-7 -64,-22 -16,-14 -25,-35 -25,-56 -1,-25 11,-49 31,-63 26,-17 57,-25 88,-23l43 0 0 -21c1,-14 -4,-27 -13,-37 -12,-10 -27,-15 -42,-14 -14,-1 -29,4 -40,12 -10,7 -16,17 -17,29l-44 0c0,-14 5,-27 13,-38 10,-12 23,-22 38,-29 17,-7 35,-10 53,-10 25,-2 51,6 71,22 17,16 27,39 26,63l0 121c0,19 3,39 10,57l0 4 -47 0zm-419 -176l84 0c20,1 41,-5 57,-18 14,-13 21,-32 20,-51 0,-19 -7,-37 -20,-50 -15,-14 -35,-21 -55,-20l-86 0 0 139zm0 38l0 138 -47 0 0 -353 131 0c32,-2 65,9 90,30 22,19 34,48 33,78 2,30 -10,59 -32,79 -26,20 -59,30 -92,28l-83 0z"/>
   <path class="theme_fill" fill="#1090CF" d="M1139 15126l8822 0c34,0 62,27 62,62l0 992c0,35 -28,63 -62,63l-8822 0c-34,0 -62,-28 -62,-63l0 -992c0,-35 28,-62 62,-62z"/>
   <path class="fil5" d="M6196 15839l-54 0 -137 -219 0 219 -54 0 0 -309 54 0 138 220 0 -220 53 0 0 309zm-311 0l-53 0 0 -309 53 0 0 309zm-224 -40c-12,15 -28,27 -46,33 -22,8 -45,12 -68,11 -24,1 -47,-5 -68,-17 -20,-12 -36,-30 -46,-51 -12,-23 -17,-50 -17,-76l0 -24c-3,-40 9,-78 33,-110 24,-26 58,-41 94,-39 29,-1 58,8 82,26 21,19 34,45 36,73l-53 0c-1,-33 -29,-58 -62,-56l-2 0c-22,-1 -42,9 -55,26 -14,23 -21,50 -19,77l0 23c-2,28 5,55 21,78 14,18 35,29 58,28 22,2 43,-5 59,-19l0 -61 -64 0 0 -40 117 0 0 118zm-343 -122c1,-28 -5,-55 -20,-79 -12,-18 -33,-28 -55,-27 -21,-1 -42,9 -54,27 -15,23 -22,50 -20,77l0 18c-2,27 5,55 20,78 12,19 33,29 55,28 21,1 42,-9 54,-27 15,-24 21,-51 20,-79l0 -16zm53 16c1,27 -5,54 -15,79 -10,22 -25,40 -45,53 -20,13 -44,19 -67,18 -24,1 -47,-6 -67,-18 -20,-13 -36,-31 -46,-52 -11,-25 -16,-52 -16,-78l0 -18c-1,-27 5,-55 16,-80 10,-21 25,-40 45,-53 20,-12 44,-18 67,-18 24,0 47,6 67,18 20,13 36,31 45,52 11,25 17,52 16,80l0 17zm-414 103l140 0 0 43 -194 0 0 -309 54 0 0 266z"/>
   <path class="fil6" d="M7872 14365c-1,0 -3,0 -4,0 -14,0 -29,-3 -42,-9 -12,-5 -23,-14 -31,-25l18 -20c12,17 32,27 53,27 1,0 2,0 3,0 13,0 25,-5 35,-14 10,-10 15,-25 14,-39l0 -17c-14,15 -32,24 -52,24 -1,0 -2,0 -3,0 -1,0 -1,0 -2,0 -21,0 -42,-11 -54,-28 -16,-23 -23,-49 -22,-76 -1,-26 6,-52 22,-73 12,-17 33,-27 54,-27 1,0 1,0 2,0 1,0 2,-1 3,-1 21,0 40,10 53,26l2 -22 30 0 0 192c2,23 -7,44 -22,60 -16,15 -36,22 -57,22zm-2 -249c-15,0 -29,7 -37,19 -10,17 -15,37 -14,57 -1,18 4,36 14,52 8,12 22,19 36,19 1,0 1,0 2,0 0,0 1,0 2,0 19,0 37,-11 45,-29l0 -90c-9,-17 -26,-28 -45,-28 -1,0 -1,0 -2,0 0,0 -1,0 -1,0zm592 248l-34 0 0 -273 31 0 2 22c13,-16 32,-26 53,-26 1,0 3,0 4,0 1,0 1,0 2,0 21,0 41,10 54,27 15,22 22,48 20,75l0 3c2,25 -6,51 -20,72 -13,17 -33,28 -54,28 0,0 -1,0 -2,0 -1,0 -2,0 -3,0 -20,0 -39,-9 -53,-23l0 95zm44 -248c-19,0 -36,11 -44,27l0 94c8,17 25,27 44,27 1,0 1,0 2,0 0,0 1,0 1,0 15,0 29,-7 37,-19 11,-17 16,-37 15,-57 1,-19 -4,-37 -14,-53 -9,-12 -23,-19 -38,-19 0,0 -1,0 -1,0 -1,0 -1,0 -2,0zm1405 176c-2,0 -3,0 -4,0 0,0 -1,0 -1,0 -22,0 -42,-11 -55,-28 -15,-22 -22,-47 -21,-73l0 -3c-1,-26 6,-52 21,-73 13,-17 34,-27 55,-27 1,0 1,0 2,0 1,0 2,-1 3,-1 20,0 38,9 51,24l0 -102 34 0 0 279 -31 0 -2 -21c-13,16 -32,25 -52,25zm5 -29c0,0 1,0 2,0 19,0 36,-11 44,-29l0 -90c-8,-17 -25,-28 -44,-28 -1,0 -1,0 -2,0 -1,0 -1,0 -2,0 -14,0 -28,7 -37,19 -10,17 -15,37 -13,57l0 0c-2,18 3,37 13,52 9,12 22,19 37,19 0,0 1,0 2,0zm-1000 29c-1,0 -3,0 -4,0 -1,0 -1,0 -2,0 -14,0 -27,-3 -40,-9 -11,-5 -21,-13 -28,-23 -7,-10 -11,-21 -11,-33l34 0c0,11 5,21 14,27 8,7 19,10 30,10 1,0 2,0 3,0 1,0 2,0 3,0 10,0 19,-3 28,-8 7,-4 11,-12 11,-20l0 0c0,-9 -3,-17 -10,-21 -11,-7 -23,-11 -36,-13 -14,-3 -28,-7 -41,-14 -8,-4 -16,-10 -22,-18 -5,-7 -7,-16 -7,-25 0,-16 8,-31 21,-41 14,-11 31,-17 49,-17 1,0 2,1 3,1 1,0 2,-1 4,-1 18,0 36,7 50,18 14,10 21,27 21,44l-34 0c0,-9 -4,-18 -12,-24 -7,-6 -17,-10 -27,-10 -1,0 -2,0 -2,0 -1,0 -2,0 -3,0 -9,0 -18,3 -26,8 -7,5 -10,13 -10,21 -1,8 3,15 9,18 11,6 23,10 35,12 14,3 28,8 41,14 9,4 17,10 23,19 5,8 8,17 8,26 0,17 -8,33 -21,42 -15,11 -33,17 -51,17zm-647 0c-12,0 -23,-5 -31,-14 -9,-11 -13,-25 -12,-39l0 -122 -35 0 0 -26 35 0 0 -47 34 0 0 47 37 0 0 26 -37 0 0 122c0,7 1,13 5,18 4,4 9,6 15,6 0,0 1,0 2,0 5,0 10,-1 16,-2l0 27c-9,2 -17,3 -26,4 -1,0 -2,0 -3,0zm426 0c-16,0 -32,-6 -45,-17 -12,-10 -19,-26 -18,-42 -1,-19 7,-37 23,-47 18,-12 38,-18 59,-18 2,0 4,0 7,1l32 0 0 -16c1,-10 -3,-21 -10,-28 -8,-7 -18,-11 -28,-11 -1,0 -2,0 -3,0 -1,0 -1,0 -2,0 -10,0 -20,4 -28,10 -8,4 -13,13 -13,22l-34 0c1,-11 4,-21 11,-29 7,-9 17,-17 28,-22 12,-5 25,-8 39,-8 0,0 0,0 1,0 1,0 3,0 4,0 18,0 35,6 49,17 13,12 20,30 20,47l0 91c-1,15 2,29 7,43l0 3 -35 0c-3,-7 -5,-14 -5,-21 -14,16 -35,25 -56,25 0,0 0,0 0,0 -1,0 -2,0 -3,0zm32 -100c-41,0 -62,13 -62,37 0,9 3,18 11,24 7,6 16,9 25,9 1,0 1,0 2,0l0 0c10,0 21,-3 30,-8 9,-5 16,-12 20,-21l0 -41 -26 0zm854 100c-23,0 -46,-11 -62,-28 -17,-21 -26,-47 -25,-74l0 -2c0,-18 4,-36 12,-52 7,-15 18,-27 31,-36 14,-8 29,-12 45,-12 1,0 1,0 2,0 1,0 2,0 3,0 23,0 46,10 62,28 17,20 26,47 25,74l0 2c0,18 -4,35 -11,51 -7,15 -18,27 -32,36 -14,8 -29,13 -45,13 -1,0 -1,0 -2,0 -1,0 -2,0 -3,0zm3 -28c0,0 1,0 1,0 16,0 31,-7 40,-20 11,-17 16,-36 15,-56 1,-19 -5,-37 -16,-53 -9,-12 -24,-20 -39,-20 -1,0 -1,0 -2,0 0,0 0,0 -1,0 -15,0 -30,8 -39,20 -11,17 -16,37 -15,57l0 0c-1,18 5,37 15,52 9,13 24,20 39,20 1,0 1,0 2,0zm-1504 28c-24,0 -46,-11 -62,-28 -17,-21 -26,-47 -25,-74l0 -2c0,-18 4,-36 12,-52 6,-15 17,-27 31,-36 14,-8 29,-12 45,-12 0,0 1,0 1,0 1,0 2,0 3,0 24,0 47,10 62,28 18,20 27,47 25,74l0 2c1,18 -3,35 -11,51 -7,15 -18,27 -31,36 -14,8 -30,13 -46,13 0,0 -1,0 -1,0 -1,0 -2,0 -3,0zm3 -28c0,0 1,0 1,0 16,0 30,-7 40,-20 11,-17 16,-36 15,-56 0,-19 -5,-37 -16,-53 -9,-12 -24,-20 -39,-20 -1,0 -1,0 -2,0 0,0 0,0 -1,0 -15,0 -30,8 -39,20 -11,17 -16,37 -15,57 -1,18 4,37 15,52 9,13 24,20 39,20 1,0 1,0 2,0zm-547 28c-23,0 -46,-11 -62,-28 -17,-21 -26,-47 -25,-74l0 -2c0,-18 4,-36 12,-52 7,-15 18,-27 31,-36 14,-8 29,-12 45,-12 1,0 1,0 2,0 1,0 2,0 3,0 23,0 46,10 62,28 17,20 26,47 25,74l0 2c0,18 -4,35 -11,51 -7,15 -18,27 -32,36 -14,8 -29,13 -45,13 -1,0 -1,0 -2,0 -1,0 -2,0 -3,0zm3 -28c1,0 1,0 2,0 15,0 30,-7 39,-20 11,-17 16,-36 15,-56 1,-19 -5,-37 -16,-53 -9,-12 -23,-20 -39,-20 0,0 -1,0 -1,0 -1,0 -1,0 -2,0 -15,0 -29,8 -39,20 -11,17 -16,37 -15,57l0 0c-1,18 5,37 15,52 10,13 24,20 40,20 0,0 1,0 1,0zm1569 28c-1,0 -3,-1 -4,-1 -1,0 -1,0 -2,0 -14,0 -27,-2 -40,-8 -11,-5 -21,-13 -28,-23 -7,-10 -11,-21 -11,-33l34 0c0,11 5,21 14,27 9,7 19,10 30,10 1,0 2,0 3,0 1,0 2,0 3,0 9,0 19,-3 28,-8 7,-4 11,-12 11,-20l0 0c0,-9 -4,-17 -10,-21 -11,-7 -23,-11 -36,-13 -14,-3 -28,-7 -41,-14 -8,-4 -16,-10 -22,-18 -5,-7 -7,-16 -7,-25 0,-16 8,-31 20,-41 15,-11 32,-17 49,-17 2,0 3,1 4,1 1,0 2,-1 4,-1 18,0 36,7 50,18 14,10 21,27 21,44l-34 0c0,-9 -4,-18 -12,-24 -7,-6 -17,-10 -28,-10 0,0 -1,0 -1,0 -1,0 -2,0 -3,0 -9,0 -18,3 -26,8 -7,5 -10,13 -10,21 -1,8 3,15 9,18 11,6 23,10 35,12 14,3 28,8 41,14 9,4 17,10 23,19 5,8 8,17 8,26 0,17 -8,33 -21,42 -15,11 -33,17 -51,17zm641 -4l-33 0 0 -197 32 0 1 23c9,-16 27,-26 45,-26 1,0 1,0 2,0 0,-1 1,-1 2,-1 4,0 8,1 13,3l0 31c-6,0 -11,-1 -17,-1 0,0 0,0 0,0 -1,0 -2,0 -3,0 -19,0 -35,11 -42,28l0 140zm-337 0l-27 0 -48 -149 -47 149 -27 0 -57 -197 33 0 39 147 46 -147 27 0 47 151 37 -151 34 0 -57 197zm-1708 0l-33 0 0 -197 32 0 1 23c9,-16 27,-26 45,-26 1,0 1,0 2,0 1,-1 1,-1 2,-1 4,0 9,1 13,3l0 31c-5,0 -11,-1 -16,-1 0,0 -1,0 -1,0 -1,0 -2,0 -3,0 -18,0 -35,11 -42,28l0 140zm-407 0l-35 0 0 -265 164 0 0 29 -129 0 0 90 111 0 0 29 -111 0 0 117z"/>
   <path class="theme_fill" fill="#1090CF" d="M6079 17166c2,-28 -5,-55 -19,-79 -13,-18 -33,-28 -55,-27 -22,-1 -42,9 -55,27 -14,23 -21,50 -20,77l0 18c-1,28 5,55 20,79 12,18 33,28 55,28 22,1 43,-10 55,-28 14,-23 21,-51 19,-79l0 -16zm54 16c0,27 -5,55 -16,80 -9,21 -25,40 -45,52 -20,13 -43,19 -67,19 -24,0 -47,-6 -67,-19 -20,-12 -36,-30 -45,-52 -11,-25 -17,-51 -16,-78l0 -18c-1,-27 4,-54 16,-79 9,-22 25,-41 45,-53 20,-13 43,-19 67,-19 23,0 47,6 67,18 20,13 35,31 45,53 11,25 16,52 16,79l0 17zm-557 -162l89 236 89 -236 69 0 0 308 -54 0 0 -101 6 -137 -92 238 -38 0 -91 -237 5 136 0 101 -53 0 0 -308 70 0zm-135 171l-127 0 0 95 148 0 0 42 -202 0 0 -308 201 0 0 43 -147 0 0 85 127 0 0 43zm-411 -128l0 223 35 0c25,1 49,-9 65,-27 16,-22 25,-48 23,-76l0 -17c2,-27 -6,-54 -22,-76 -16,-19 -39,-29 -63,-27l-38 0zm-53 265l0 -308 91 0c25,-1 50,5 72,18 22,12 39,30 50,52 11,23 17,50 17,76l0 16c1,27 -5,53 -18,77 -11,22 -28,40 -49,51 -23,13 -49,19 -75,18l-88 0z"/>
 </g>
</svg>
