<svg xmlns="http://www.w3.org/2000/svg" xmlns:xlink="http://www.w3.org/1999/xlink" width="408" height="831" viewBox="0 0 408 831">
  <defs>
    <filter id="Rectangle_182" x="57" y="477" width="294.325" height="42" filterUnits="userSpaceOnUse">
      <feOffset dy="2" input="SourceAlpha"/>
      <feGaussianBlur stdDeviation="1" result="blur"/>
      <feFlood flood-opacity="0.239"/>
      <feComposite operator="in" in2="blur"/>
      <feComposite in="SourceGraphic"/>
    </filter>
    <clipPath id="clip-iPhone_6_7_8_1">
      <rect width="408" height="831"/>
    </clipPath>
  </defs>
  <g id="iPhone_6_7_8_1" data-name="iPhone 6/7/8 – 1" clip-path="url(#clip-iPhone_6_7_8_1)">
    <rect width="408" height="831" fill="#fff"/>
    <g id="Group_16" data-name="Group 16" transform="translate(-1)">
      <rect id="Rectangle_380" data-name="Rectangle 380" width="362.325" height="640" transform="translate(24 93)" fill="#fff"/>
      <g id="System_Bar_Primary" data-name="System Bar / Primary" transform="translate(24 93)">
        <rect id="Rectangle_373" data-name="Rectangle 373" width="362.325" height="24" transform="translate(0)" fill="#1e96dc"/>
        <path id="Icons" d="M23-10a5,5,0,0,1,5,5,5,5,0,0,1-5,5,5,5,0,0,1-5-5A5,5,0,0,1,23-10ZM40,0,34-10H46ZM0-10H10V0H0Z" transform="translate(309.325 17)" fill="#fff" fill-rule="evenodd" opacity="0.54"/>
      </g>
      <path id="qrcode" d="M3,11H5v2H3V11m8-6h2V9H11V5M9,11h4v4H11V13H9V11m6,0h2v2h2V11h2v2H19v2h2v4H19v2H17V19H13v2H11V17h4V15h2V13H15V11m4,8V15H17v4h2M15,3h6V9H15V3m2,2V7h2V5H17M3,3H9V9H3V3M5,5V7H7V5H5M3,15H9v6H3V15m2,2v2H7V17Z" transform="translate(40 133)" fill="#1e96dc"/>
      <g id="baseline-settings-20px_3_" data-name="baseline-settings-20px (3)" transform="translate(346.325 133)">
        <path id="Path_1" data-name="Path 1" d="M0,0H24V24H0Z" fill="none"/>
        <path id="Path_2" data-name="Path 2" d="M19.48,12.975A8.113,8.113,0,0,0,19.543,12a6.131,6.131,0,0,0-.075-.975l2.125-1.65a.515.515,0,0,0,.126-.637L19.706,5.275a.513.513,0,0,0-.616-.225l-2.5,1a7.376,7.376,0,0,0-1.7-.975l-.377-2.65a.5.5,0,0,0-.5-.425H9.989a.488.488,0,0,0-.49.425l-.377,2.65a7.573,7.573,0,0,0-1.7.975l-2.5-1a.5.5,0,0,0-.616.225L2.295,8.737a.483.483,0,0,0,.126.638l2.125,1.65a5.858,5.858,0,0,0-.013,1.95l-2.125,1.65a.515.515,0,0,0-.126.638l2.011,3.463a.513.513,0,0,0,.616.225l2.5-1a7.376,7.376,0,0,0,1.7.975l.377,2.65a.511.511,0,0,0,.5.425h4.023a.479.479,0,0,0,.49-.425l.377-2.65a7.573,7.573,0,0,0,1.7-.975l2.5,1a.5.5,0,0,0,.616-.225l2.011-3.462a.483.483,0,0,0-.126-.638l-2.1-1.65ZM12,15.75A3.75,3.75,0,1,1,15.771,12,3.772,3.772,0,0,1,12,15.75Z" transform="translate(0 0)" fill="#1e96dc"/>
      </g>
      <path id="Path_42" data-name="Path 42" d="M-69.824-11.668l3.795-8.949h5.367L-67.3-7.406V0h-5.041V-7.406l-6.627-13.211h5.338Zm27.711,1.784a12.158,12.158,0,0,1-1.119,5.338A8.268,8.268,0,0,1-46.41-.97,8.852,8.852,0,0,1-51.1.283,8.977,8.977,0,0,1-55.777-.927,8.254,8.254,0,0,1-58.956-4.39a11.808,11.808,0,0,1-1.2-5.168v-1.161a12.212,12.212,0,0,1,1.112-5.345,8.247,8.247,0,0,1,3.186-3.575,8.914,8.914,0,0,1,4.722-1.26,8.827,8.827,0,0,1,4.673,1.246,8.4,8.4,0,0,1,3.193,3.547,11.861,11.861,0,0,1,1.154,5.275Zm-5.055-.864a8.67,8.67,0,0,0-1.027-4.666,3.293,3.293,0,0,0-2.938-1.593q-3.738,0-3.951,5.607L-55.1-9.884a8.917,8.917,0,0,0,1.005,4.659A3.288,3.288,0,0,0-51.1-3.6a3.248,3.248,0,0,0,2.9-1.6,8.673,8.673,0,0,0,1.034-4.6Zm23.789-9.87V-7.123a7.756,7.756,0,0,1-.977,3.972,6.329,6.329,0,0,1-2.8,2.556,9.877,9.877,0,0,1-4.319.878,8.533,8.533,0,0,1-5.933-1.954A6.969,6.969,0,0,1-39.62-7.023V-20.617h5V-6.924q.085,3.384,3.144,3.384a3.043,3.043,0,0,0,2.336-.85,3.971,3.971,0,0,0,.793-2.761V-20.617ZM-12.617-7.292h-2.69V0h-4.97V-20.617h8.114a9.056,9.056,0,0,1,5.735,1.627,5.512,5.512,0,0,1,2.067,4.6,6.694,6.694,0,0,1-.871,3.565A6.181,6.181,0,0,1-7.958-8.537l4.3,8.325V0H-8.978Zm-2.69-3.823h3.144a2.822,2.822,0,0,0,2.131-.745,2.881,2.881,0,0,0,.715-2.08,2.915,2.915,0,0,0-.722-2.094,2.8,2.8,0,0,0-2.124-.759h-3.144Zm26.14,7.292h8.652V0H5.862V-20.617h4.97Zm27.3-6.061a12.158,12.158,0,0,1-1.119,5.338A8.268,8.268,0,0,1,33.836-.97,8.852,8.852,0,0,1,29.142.283,8.977,8.977,0,0,1,24.469-.927,8.254,8.254,0,0,1,21.29-4.39a11.808,11.808,0,0,1-1.2-5.168v-1.161A12.212,12.212,0,0,1,21.2-16.065a8.247,8.247,0,0,1,3.186-3.575,8.914,8.914,0,0,1,4.722-1.26,8.827,8.827,0,0,1,4.673,1.246,8.4,8.4,0,0,1,3.193,3.547,11.861,11.861,0,0,1,1.154,5.275Zm-5.055-.864a8.67,8.67,0,0,0-1.027-4.666,3.293,3.293,0,0,0-2.938-1.593q-3.738,0-3.951,5.607l-.014,1.515a8.917,8.917,0,0,0,1.005,4.659A3.288,3.288,0,0,0,29.142-3.6a3.248,3.248,0,0,0,2.9-1.6,8.673,8.673,0,0,0,1.034-4.6Zm24.5,8.2A7.991,7.991,0,0,1,54.219-.5a14.475,14.475,0,0,1-4.843.779,8.635,8.635,0,0,1-6.471-2.478,10.031,10.031,0,0,1-2.591-6.9L40.3-10.875a12.3,12.3,0,0,1,1.076-5.317,7.991,7.991,0,0,1,3.08-3.5,8.712,8.712,0,0,1,4.637-1.225,9.133,9.133,0,0,1,5.983,1.763,7.47,7.47,0,0,1,2.485,5.26H52.775a3.909,3.909,0,0,0-1.1-2.464,3.564,3.564,0,0,0-2.407-.736,3.243,3.243,0,0,0-2.889,1.586,8.468,8.468,0,0,0-1.034,4.531v1.246A8.29,8.29,0,0,0,46.4-5.091,3.731,3.731,0,0,0,49.716-3.54,4.176,4.176,0,0,0,52.6-4.4V-7.6H49.15v-3.413h8.425ZM77.923-9.884A12.158,12.158,0,0,1,76.8-4.545,8.268,8.268,0,0,1,73.626-.97,8.852,8.852,0,0,1,68.932.283,8.977,8.977,0,0,1,64.259-.927,8.254,8.254,0,0,1,61.08-4.39a11.808,11.808,0,0,1-1.2-5.168v-1.161a12.212,12.212,0,0,1,1.112-5.345,8.247,8.247,0,0,1,3.186-3.575A8.914,8.914,0,0,1,68.9-20.9a8.827,8.827,0,0,1,4.673,1.246,8.4,8.4,0,0,1,3.193,3.547,11.861,11.861,0,0,1,1.154,5.275Zm-5.055-.864a8.67,8.67,0,0,0-1.027-4.666A3.293,3.293,0,0,0,68.9-17.006q-3.738,0-3.951,5.607l-.014,1.515a8.917,8.917,0,0,0,1.005,4.659A3.288,3.288,0,0,0,68.932-3.6a3.248,3.248,0,0,0,2.9-1.6,8.673,8.673,0,0,0,1.034-4.6Z" transform="translate(205.662 257)" opacity="0.38"/>
      <g id="Group_15" data-name="Group 15" transform="translate(61 339)">
        <g id="hint_text_1_light">
          <path id="text_path" d="M288.325,1H0V0H288.325Z" transform="translate(0 23.5)" opacity="0.12"/>
          <path id="hint_text" d="M7.75-5.258H2.82v4.031H8.547V0H1.32V-11.375H8.469v1.227H2.82v3.664H7.75ZM13.2-4.242H9.383v-1.18H13.2Zm2.766-4.211L16-7.516a3.122,3.122,0,0,1,2.508-1.094A2.417,2.417,0,0,1,20.922-7.25a3.2,3.2,0,0,1,1.1-.984,3.242,3.242,0,0,1,1.6-.375q2.781,0,2.828,2.945V0H25V-5.578a1.941,1.941,0,0,0-.414-1.355A1.823,1.823,0,0,0,23.2-7.383a1.916,1.916,0,0,0-1.336.48,1.949,1.949,0,0,0-.617,1.293V0H19.789V-5.539a1.613,1.613,0,0,0-1.8-1.844,1.934,1.934,0,0,0-1.945,1.211V0H14.594V-8.453ZM33.844,0a3.036,3.036,0,0,1-.2-.891A3.225,3.225,0,0,1,31.234.156a2.984,2.984,0,0,1-2.051-.707,2.287,2.287,0,0,1-.8-1.793,2.39,2.39,0,0,1,1-2.051,4.733,4.733,0,0,1,2.824-.73h1.406v-.664A1.623,1.623,0,0,0,33.164-7a1.821,1.821,0,0,0-1.336-.449,2.108,2.108,0,0,0-1.3.391,1.151,1.151,0,0,0-.523.945H28.555A2,2,0,0,1,29-7.332a3.066,3.066,0,0,1,1.219-.934,4.1,4.1,0,0,1,1.691-.344,3.342,3.342,0,0,1,2.289.73,2.635,2.635,0,0,1,.859,2.012v3.891a4.757,4.757,0,0,0,.3,1.852V0Zm-2.4-1.1a2.54,2.54,0,0,0,1.289-.352,2.127,2.127,0,0,0,.883-.914V-4.1H32.484q-2.656,0-2.656,1.555a1.316,1.316,0,0,0,.453,1.063A1.742,1.742,0,0,0,31.445-1.1ZM38.9,0H37.453V-8.453H38.9ZM37.336-10.7a.863.863,0,0,1,.215-.594.807.807,0,0,1,.637-.242.819.819,0,0,1,.641.242.854.854,0,0,1,.219.594.826.826,0,0,1-.219.586.834.834,0,0,1-.641.234.821.821,0,0,1-.637-.234A.834.834,0,0,1,37.336-10.7ZM42.781,0H41.336V-12h1.445Z" transform="translate(0 12)" fill="rgba(0,0,0,0.38)"/>
        </g>
        <g id="hint_text_1_light-2" data-name="hint_text_1_light" transform="translate(0 60)">
          <path id="text_path-2" data-name="text_path" d="M288.325,1H0V0H288.325Z" transform="translate(0 23.5)" opacity="0.12"/>
          <path id="hint_text-2" data-name="hint_text" d="M2.82-4.453V0H1.32V-11.375h4.2a4.215,4.215,0,0,1,2.926.953A3.231,3.231,0,0,1,9.5-7.9,3.189,3.189,0,0,1,8.465-5.348,4.4,4.4,0,0,1,5.5-4.453Zm0-1.227h2.7a2.7,2.7,0,0,0,1.844-.567A2.075,2.075,0,0,0,8-7.887a2.143,2.143,0,0,0-.641-1.628A2.525,2.525,0,0,0,5.6-10.148H2.82ZM16.32,0a3.036,3.036,0,0,1-.2-.891A3.225,3.225,0,0,1,13.711.156,2.984,2.984,0,0,1,11.66-.551a2.287,2.287,0,0,1-.8-1.793,2.39,2.39,0,0,1,1-2.051,4.733,4.733,0,0,1,2.824-.73h1.406v-.664A1.623,1.623,0,0,0,15.641-7,1.821,1.821,0,0,0,14.3-7.445a2.107,2.107,0,0,0-1.3.391,1.151,1.151,0,0,0-.523.945H11.031a2,2,0,0,1,.449-1.223A3.066,3.066,0,0,1,12.7-8.266a4.1,4.1,0,0,1,1.691-.344,3.342,3.342,0,0,1,2.289.73,2.635,2.635,0,0,1,.859,2.012v3.891a4.757,4.757,0,0,0,.3,1.852V0Zm-2.4-1.1a2.54,2.54,0,0,0,1.289-.352,2.127,2.127,0,0,0,.883-.914V-4.1H14.961Q12.3-4.1,12.3-2.547a1.316,1.316,0,0,0,.453,1.063A1.742,1.742,0,0,0,13.922-1.1Zm10.8-1.141a1.064,1.064,0,0,0-.441-.91,4.249,4.249,0,0,0-1.539-.559A7.277,7.277,0,0,1,21-4.273a2.479,2.479,0,0,1-.953-.781,1.869,1.869,0,0,1-.309-1.078,2.193,2.193,0,0,1,.879-1.758,3.432,3.432,0,0,1,2.246-.719,3.532,3.532,0,0,1,2.332.742,2.357,2.357,0,0,1,.895,1.9H24.641a1.3,1.3,0,0,0-.5-1.023,1.888,1.888,0,0,0-1.27-.43,1.976,1.976,0,0,0-1.234.344,1.082,1.082,0,0,0-.445.9.877.877,0,0,0,.414.789,5.1,5.1,0,0,0,1.5.508,7.8,7.8,0,0,1,1.754.578,2.558,2.558,0,0,1,1,.809,1.988,1.988,0,0,1,.324,1.152,2.163,2.163,0,0,1-.906,1.816,3.8,3.8,0,0,1-2.352.684,4.257,4.257,0,0,1-1.8-.359,2.922,2.922,0,0,1-1.223-1A2.42,2.42,0,0,1,19.453-2.6H20.9a1.5,1.5,0,0,0,.582,1.152,2.258,2.258,0,0,0,1.434.426,2.331,2.331,0,0,0,1.316-.332A1.02,1.02,0,0,0,24.727-2.242Zm8.25,0a1.064,1.064,0,0,0-.441-.91A4.249,4.249,0,0,0,31-3.711a7.277,7.277,0,0,1-1.742-.562,2.479,2.479,0,0,1-.953-.781,1.869,1.869,0,0,1-.309-1.078,2.193,2.193,0,0,1,.879-1.758,3.432,3.432,0,0,1,2.246-.719,3.532,3.532,0,0,1,2.332.742,2.357,2.357,0,0,1,.895,1.9H32.891a1.3,1.3,0,0,0-.5-1.023,1.888,1.888,0,0,0-1.27-.43,1.976,1.976,0,0,0-1.234.344,1.082,1.082,0,0,0-.445.9.877.877,0,0,0,.414.789,5.1,5.1,0,0,0,1.5.508A7.8,7.8,0,0,1,33.1-4.3a2.558,2.558,0,0,1,1,.809,1.988,1.988,0,0,1,.324,1.152,2.163,2.163,0,0,1-.906,1.816,3.8,3.8,0,0,1-2.352.684,4.257,4.257,0,0,1-1.8-.359,2.922,2.922,0,0,1-1.223-1A2.42,2.42,0,0,1,27.7-2.6h1.445a1.5,1.5,0,0,0,.582,1.152,2.258,2.258,0,0,0,1.434.426,2.331,2.331,0,0,0,1.316-.332A1.02,1.02,0,0,0,32.977-2.242Zm10.813.25,1.625-6.461h1.445L44.4,0H43.227L41.172-6.406,39.172,0H38L35.547-8.453h1.438l1.664,6.328,1.969-6.328h1.164ZM47.945-4.3a4.993,4.993,0,0,1,.488-2.234A3.643,3.643,0,0,1,49.793-8.07a3.7,3.7,0,0,1,1.988-.539,3.565,3.565,0,0,1,2.793,1.2,4.6,4.6,0,0,1,1.066,3.18v.1a5.036,5.036,0,0,1-.473,2.215A3.589,3.589,0,0,1,53.816-.391,3.743,3.743,0,0,1,51.8.156a3.556,3.556,0,0,1-2.785-1.2A4.575,4.575,0,0,1,47.945-4.2Zm1.453.172a3.616,3.616,0,0,0,.652,2.258,2.088,2.088,0,0,0,1.746.852,2.075,2.075,0,0,0,1.75-.863A3.955,3.955,0,0,0,54.2-4.3a3.61,3.61,0,0,0-.66-2.254,2.1,2.1,0,0,0-1.754-.863,2.075,2.075,0,0,0-1.727.852A3.925,3.925,0,0,0,49.4-4.133ZM61.539-7.156a4.331,4.331,0,0,0-.711-.055A1.9,1.9,0,0,0,58.9-6V0H57.453V-8.453h1.406l.023.977A2.251,2.251,0,0,1,60.9-8.609a1.477,1.477,0,0,1,.641.109ZM62.367-4.3a4.952,4.952,0,0,1,.922-3.129A2.915,2.915,0,0,1,65.7-8.609a2.932,2.932,0,0,1,2.352,1.016V-12H69.5V0H68.172L68.1-.906A2.943,2.943,0,0,1,65.688.156a2.887,2.887,0,0,1-2.395-1.2,5.008,5.008,0,0,1-.926-3.141Zm1.445.164a3.749,3.749,0,0,0,.594,2.25,1.92,1.92,0,0,0,1.641.813A2.109,2.109,0,0,0,68.055-2.3V-6.187a2.125,2.125,0,0,0-1.992-1.2,1.929,1.929,0,0,0-1.656.82A4.128,4.128,0,0,0,63.813-4.133Z" transform="translate(0 12)" fill="rgba(0,0,0,0.38)"/>
        </g>
        <g id="Normal_Raised_Light" data-name="Normal Raised Light" transform="translate(0 139)">
          <g transform="matrix(1, 0, 0, 1, -60, -478)" filter="url(#Rectangle_182)">
            <rect id="Rectangle_182-2" data-name="Rectangle 182" width="288.325" height="36" rx="2" transform="translate(60 478)" fill="#1e96dc"/>
          </g>
          <path id="Normal" d="M-19.113-1.381h4.519V0h-6.248V-9.953h1.729ZM-5.763-4.717A6.107,6.107,0,0,1-6.269-2.15a3.825,3.825,0,0,1-1.446,1.7A3.977,3.977,0,0,1-9.878.137a3.986,3.986,0,0,1-2.157-.591A3.884,3.884,0,0,1-13.5-2.14a5.915,5.915,0,0,1-.523-2.522v-.561a6.054,6.054,0,0,1,.516-2.57A3.879,3.879,0,0,1-12.048-9.5a3.964,3.964,0,0,1,2.157-.591,4,4,0,0,1,2.157.584A3.83,3.83,0,0,1-6.282-7.824a6.041,6.041,0,0,1,.52,2.553Zm-1.729-.52a4.351,4.351,0,0,0-.625-2.536,2.046,2.046,0,0,0-1.774-.882,2.04,2.04,0,0,0-1.753.878,4.267,4.267,0,0,0-.646,2.485v.574a4.318,4.318,0,0,0,.639,2.536,2.058,2.058,0,0,0,1.774.9A2.034,2.034,0,0,0-8.111-2.16a4.411,4.411,0,0,0,.619-2.557ZM3.589-1.292a3.307,3.307,0,0,1-1.5,1.066A6.108,6.108,0,0,1-.082.137,4.284,4.284,0,0,1-2.3-.431,3.779,3.779,0,0,1-3.784-2.054a5.68,5.68,0,0,1-.543-2.464V-5.3a5.268,5.268,0,0,1,1.08-3.524A3.746,3.746,0,0,1-.232-10.09a3.963,3.963,0,0,1,2.639.824A3.549,3.549,0,0,1,3.582-6.9h-1.7A1.907,1.907,0,0,0-.2-8.7a2.044,2.044,0,0,0-1.767.837A4.262,4.262,0,0,0-2.591-5.4v.765a4.048,4.048,0,0,0,.68,2.5,2.244,2.244,0,0,0,1.89.891,2.492,2.492,0,0,0,1.887-.6V-3.794H-.185V-5.106H3.589ZM10.8,0H9.078V-9.953H10.8ZM20.822,0H19.093L14.656-7.062V0H12.927V-9.953h1.729l4.45,7.089V-9.953h1.716Z" transform="translate(144.163 23)" fill="#fff"/>
        </g>
        <path id="Body_1" data-name="Body 1" d="M-84.287-3.768h-3.58V0h-1.125V-8.531h5.285v.92h-4.16v2.924h3.58Zm1.348.539A3.745,3.745,0,0,1-82.573-4.9a2.732,2.732,0,0,1,1.02-1.148,2.775,2.775,0,0,1,1.491-.4,2.674,2.674,0,0,1,2.095.9,3.449,3.449,0,0,1,.8,2.385V-3.1a3.777,3.777,0,0,1-.354,1.661A2.692,2.692,0,0,1-78.536-.293a2.807,2.807,0,0,1-1.515.41,2.667,2.667,0,0,1-2.089-.9,3.432,3.432,0,0,1-.8-2.373Zm1.09.129a2.712,2.712,0,0,0,.489,1.693,1.566,1.566,0,0,0,1.31.639,1.556,1.556,0,0,0,1.313-.647,2.966,2.966,0,0,0,.486-1.813,2.708,2.708,0,0,0-.5-1.69,1.574,1.574,0,0,0-1.315-.647,1.557,1.557,0,0,0-1.295.639A2.944,2.944,0,0,0-81.85-3.1Zm9.105-2.268a3.248,3.248,0,0,0-.533-.041,1.428,1.428,0,0,0-1.447.908V0h-1.084V-6.34h1.055l.018.732a1.688,1.688,0,0,1,1.512-.85,1.107,1.107,0,0,1,.48.082Zm.627,2.145a3.726,3.726,0,0,1,.686-2.358,2.192,2.192,0,0,1,1.816-.876,2.181,2.181,0,0,1,1.811.82l.053-.7h.99V-.152a2.579,2.579,0,0,1-.729,1.939,2.692,2.692,0,0,1-1.96.709A3.261,3.261,0,0,1-70.793,2.2a2.31,2.31,0,0,1-1-.8l.563-.65a2.12,2.12,0,0,0,1.705.861,1.661,1.661,0,0,0,1.233-.445,1.7,1.7,0,0,0,.442-1.254V-.633a2.228,2.228,0,0,1-1.775.75,2.166,2.166,0,0,1-1.8-.9A3.918,3.918,0,0,1-72.117-3.223Zm1.09.123a2.843,2.843,0,0,0,.439,1.685,1.428,1.428,0,0,0,1.23.612,1.588,1.588,0,0,0,1.506-.932V-4.629a1.606,1.606,0,0,0-1.494-.908,1.441,1.441,0,0,0-1.236.615A3.1,3.1,0,0,0-71.027-3.1Zm5.613-.129A3.745,3.745,0,0,1-65.048-4.9a2.732,2.732,0,0,1,1.02-1.148,2.775,2.775,0,0,1,1.491-.4,2.674,2.674,0,0,1,2.095.9,3.449,3.449,0,0,1,.8,2.385V-3.1A3.777,3.777,0,0,1-60-1.438,2.692,2.692,0,0,1-61.011-.293a2.807,2.807,0,0,1-1.515.41,2.667,2.667,0,0,1-2.089-.9,3.432,3.432,0,0,1-.8-2.373Zm1.09.129a2.712,2.712,0,0,0,.489,1.693,1.566,1.566,0,0,0,1.31.639,1.556,1.556,0,0,0,1.313-.647,2.966,2.966,0,0,0,.486-1.813,2.708,2.708,0,0,0-.5-1.69,1.574,1.574,0,0,0-1.315-.647,1.557,1.557,0,0,0-1.295.639A2.944,2.944,0,0,0-64.324-3.1Zm7.512-4.775V-6.34h1.184V-5.5h-1.184v3.937a.88.88,0,0,0,.158.572.666.666,0,0,0,.539.191,2.624,2.624,0,0,0,.516-.07V0a3.161,3.161,0,0,1-.832.116,1.35,1.35,0,0,1-1.1-.439A1.888,1.888,0,0,1-57.9-1.57V-5.5h-1.154V-6.34H-57.9V-7.875ZM-46.037-3.1A3.8,3.8,0,0,1-46.7-.768a2.122,2.122,0,0,1-1.793.885,2.325,2.325,0,0,1-1.816-.732V2.438h-1.084V-6.34h.99l.053.7a2.233,2.233,0,0,1,1.84-.82A2.162,2.162,0,0,1-46.7-5.6a3.838,3.838,0,0,1,.665,2.4Zm-1.084-.123a2.8,2.8,0,0,0-.457-1.693,1.472,1.472,0,0,0-1.254-.621,1.593,1.593,0,0,0-1.477.873v3.029a1.6,1.6,0,0,0,1.488.867,1.465,1.465,0,0,0,1.239-.618A3.058,3.058,0,0,0-47.121-3.223ZM-40.746,0A2.277,2.277,0,0,1-40.9-.668a2.419,2.419,0,0,1-1.8.785,2.238,2.238,0,0,1-1.538-.53,1.716,1.716,0,0,1-.6-1.345A1.792,1.792,0,0,1-44.089-3.3a3.55,3.55,0,0,1,2.118-.548h1.055v-.5a1.217,1.217,0,0,0-.34-.905,1.366,1.366,0,0,0-1-.337,1.581,1.581,0,0,0-.973.293.863.863,0,0,0-.393.709h-1.09a1.5,1.5,0,0,1,.337-.917,2.3,2.3,0,0,1,.914-.7,3.075,3.075,0,0,1,1.269-.258,2.506,2.506,0,0,1,1.717.548A1.976,1.976,0,0,1-39.832-4.4v2.918a3.567,3.567,0,0,0,.223,1.389V0Zm-1.8-.826a1.905,1.905,0,0,0,.967-.264,1.6,1.6,0,0,0,.662-.686v-1.3h-.85q-1.992,0-1.992,1.166a.987.987,0,0,0,.34.8A1.306,1.306,0,0,0-42.545-.826Zm8.1-.855a.8.8,0,0,0-.331-.683,3.187,3.187,0,0,0-1.154-.419,5.457,5.457,0,0,1-1.307-.422,1.859,1.859,0,0,1-.715-.586A1.4,1.4,0,0,1-38.18-4.6a1.645,1.645,0,0,1,.659-1.318,2.574,2.574,0,0,1,1.685-.539,2.649,2.649,0,0,1,1.749.557,1.768,1.768,0,0,1,.671,1.424h-1.09a.979.979,0,0,0-.378-.768,1.416,1.416,0,0,0-.952-.322,1.482,1.482,0,0,0-.926.258.812.812,0,0,0-.334.674.658.658,0,0,0,.311.592,3.821,3.821,0,0,0,1.122.381,5.847,5.847,0,0,1,1.315.434,1.919,1.919,0,0,1,.747.606,1.491,1.491,0,0,1,.243.864A1.623,1.623,0,0,1-34.037-.4,2.851,2.851,0,0,1-35.8.117a3.193,3.193,0,0,1-1.348-.27,2.192,2.192,0,0,1-.917-.753A1.815,1.815,0,0,1-38.4-1.951h1.084a1.122,1.122,0,0,0,.437.864A1.693,1.693,0,0,0-35.8-.768a1.748,1.748,0,0,0,.987-.249A.765.765,0,0,0-34.441-1.682Zm6.188,0a.8.8,0,0,0-.331-.683,3.187,3.187,0,0,0-1.154-.419,5.457,5.457,0,0,1-1.307-.422,1.859,1.859,0,0,1-.715-.586,1.4,1.4,0,0,1-.231-.809,1.645,1.645,0,0,1,.659-1.318,2.574,2.574,0,0,1,1.685-.539A2.649,2.649,0,0,1-27.9-5.9a1.768,1.768,0,0,1,.671,1.424h-1.09a.979.979,0,0,0-.378-.768,1.416,1.416,0,0,0-.952-.322,1.482,1.482,0,0,0-.926.258.812.812,0,0,0-.334.674.658.658,0,0,0,.311.592,3.821,3.821,0,0,0,1.122.381,5.847,5.847,0,0,1,1.315.434,1.919,1.919,0,0,1,.747.606,1.491,1.491,0,0,1,.243.864A1.623,1.623,0,0,1-27.85-.4a2.851,2.851,0,0,1-1.764.513,3.193,3.193,0,0,1-1.348-.27,2.192,2.192,0,0,1-.917-.753,1.815,1.815,0,0,1-.331-1.046h1.084a1.122,1.122,0,0,0,.437.864,1.693,1.693,0,0,0,1.075.319,1.748,1.748,0,0,0,.987-.249A.765.765,0,0,0-28.254-1.682Zm8.109.188,1.219-4.846h1.084L-19.687,0h-.879l-1.541-4.8-1.5,4.8h-.879l-1.84-6.34h1.078L-24-1.594l1.477-4.746h.873Zm3.117-1.734A3.745,3.745,0,0,1-16.661-4.9a2.732,2.732,0,0,1,1.02-1.148,2.775,2.775,0,0,1,1.491-.4,2.674,2.674,0,0,1,2.095.9,3.449,3.449,0,0,1,.8,2.385V-3.1a3.777,3.777,0,0,1-.354,1.661A2.692,2.692,0,0,1-12.624-.293a2.807,2.807,0,0,1-1.515.41,2.667,2.667,0,0,1-2.089-.9,3.432,3.432,0,0,1-.8-2.373Zm1.09.129a2.712,2.712,0,0,0,.489,1.693,1.566,1.566,0,0,0,1.31.639,1.556,1.556,0,0,0,1.313-.647,2.966,2.966,0,0,0,.486-1.813,2.708,2.708,0,0,0-.5-1.69,1.574,1.574,0,0,0-1.315-.647,1.557,1.557,0,0,0-1.295.639A2.944,2.944,0,0,0-15.937-3.1Zm9.105-2.268a3.248,3.248,0,0,0-.533-.041A1.428,1.428,0,0,0-8.812-4.5V0H-9.9V-6.34h1.055l.018.732a1.688,1.688,0,0,1,1.512-.85,1.107,1.107,0,0,1,.48.082Zm.621,2.145A3.714,3.714,0,0,1-5.52-5.569a2.186,2.186,0,0,1,1.811-.888A2.2,2.2,0,0,1-1.945-5.7V-9H-.861V0h-1L-1.91-.68a2.208,2.208,0,0,1-1.811.8,2.165,2.165,0,0,1-1.8-.9,3.756,3.756,0,0,1-.694-2.355Zm1.084.123a2.812,2.812,0,0,0,.445,1.688A1.44,1.44,0,0,0-3.451-.8a1.581,1.581,0,0,0,1.506-.926V-4.641a1.593,1.593,0,0,0-1.494-.9,1.446,1.446,0,0,0-1.242.615A3.1,3.1,0,0,0-5.127-3.1Z" transform="translate(288.325 112)" fill="rgba(0,0,0,0.87)" opacity="0.54"/>
        <g id="Normal_Flat_Light" data-name="Normal Flat Light" transform="translate(99.163 187)">
          <path id="teal_Normal" d="M-18.481,0V-9.953h2.939a4.61,4.61,0,0,1,2.341.588A4.009,4.009,0,0,1-11.618-7.7a5.3,5.3,0,0,1,.561,2.475v.5a5.273,5.273,0,0,1-.564,2.488A3.96,3.96,0,0,1-13.228-.581,4.824,4.824,0,0,1-15.617,0Zm1.729-8.559v7.178h1.128a2.6,2.6,0,0,0,2.088-.851,3.707,3.707,0,0,0,.742-2.444v-.554A3.8,3.8,0,0,0-13.5-7.7a2.5,2.5,0,0,0-2.044-.854ZM-3.517-4.443H-7.6v3.063h4.778V0H-9.334V-9.953h6.46v1.395H-7.6v2.748h4.088ZM.824-9.953,3.695-2.324,6.559-9.953H8.794V0H7.072V-3.281L7.243-7.67,4.3,0H3.066L.133-7.663.3-3.281V0H-1.418V-9.953ZM18.782-4.717a6.107,6.107,0,0,1-.506,2.567,3.825,3.825,0,0,1-1.446,1.7,3.977,3.977,0,0,1-2.164.591A3.986,3.986,0,0,1,12.51-.455,3.884,3.884,0,0,1,11.047-2.14a5.915,5.915,0,0,1-.523-2.522v-.561a6.054,6.054,0,0,1,.516-2.57A3.879,3.879,0,0,1,12.5-9.5a3.964,3.964,0,0,1,2.157-.591,4,4,0,0,1,2.157.584,3.83,3.83,0,0,1,1.453,1.682,6.041,6.041,0,0,1,.52,2.553Zm-1.729-.52a4.351,4.351,0,0,0-.625-2.536,2.046,2.046,0,0,0-1.774-.882,2.04,2.04,0,0,0-1.753.878,4.267,4.267,0,0,0-.646,2.485v.574a4.318,4.318,0,0,0,.639,2.536,2.058,2.058,0,0,0,1.774.9,2.034,2.034,0,0,0,1.767-.875,4.411,4.411,0,0,0,.619-2.557Z" transform="translate(45 23)" fill="#1e96dc"/>
          <g id="ui_raised_btn_light">
            <path id="button" d="M1.915,0h86.17A1.959,1.959,0,0,1,90,2V34a1.959,1.959,0,0,1-1.915,2H1.915A1.959,1.959,0,0,1,0,34V2A1.959,1.959,0,0,1,1.915,0Z" fill="none"/>
          </g>
        </g>
      </g>
    </g>
    <g id="shutterstock_456738433_преобразованный_" data-name="shutterstock_456738433 [преобразованный]">
      <g id="Group_2" data-name="Group 2" transform="translate(167.791 43.281)">
        <path id="Path_3" data-name="Path 3" d="M159.287,34.423h-58.2a4.792,4.792,0,1,1,0-9.583h58.2a4.792,4.792,0,0,1,0,9.583Zm-58.2-7.858a3.049,3.049,0,1,0,0,6.1h58.2a3.049,3.049,0,1,0,0-6.1Z" transform="translate(-96.3 -24.84)" fill="#747474"/>
      </g>
      <g id="Group_3" data-name="Group 3" transform="translate(169.534 747.046)">
        <path id="Path_4" data-name="Path 4" d="M130.876,495.9a33.576,33.576,0,1,1,33.576-33.576A33.6,33.6,0,0,1,130.876,495.9Zm0-65.461a31.886,31.886,0,1,0,31.886,31.886A31.923,31.923,0,0,0,130.876,430.44Z" transform="translate(-97.3 -428.75)" fill="#747474"/>
      </g>
      <g id="Group_4" data-name="Group 4" transform="translate(21.937 91.58)">
        <path id="Path_5" data-name="Path 5" d="M373.4,695.412H16.232a3.651,3.651,0,0,1-3.642-3.642V56.2a3.651,3.651,0,0,1,3.642-3.642H373.385a3.651,3.651,0,0,1,3.642,3.642V691.788A3.621,3.621,0,0,1,373.4,695.412ZM16.232,54.3a1.9,1.9,0,0,0-1.9,1.9V691.788a1.9,1.9,0,0,0,1.9,1.9H373.385a1.9,1.9,0,0,0,1.9-1.9V56.2a1.9,1.9,0,0,0-1.9-1.9Z" transform="translate(-12.59 -52.56)" fill="#747474"/>
      </g>
      <path id="Path_6" data-name="Path 6" d="M405.975,169.882h-4.948V55.338A55.406,55.406,0,0,0,345.689,0H62.639A55.406,55.406,0,0,0,7.3,55.338V169.882H2.056A2.06,2.06,0,0,0,0,171.938v59.694a2.06,2.06,0,0,0,2.056,2.056H7.3v11.291H2.056A2.06,2.06,0,0,0,0,247.035v59.694a2.06,2.06,0,0,0,2.056,2.056H7.3V775.029a55.406,55.406,0,0,0,55.338,55.338h283.05a55.406,55.406,0,0,0,55.338-55.338V235.936h4.948a2.1,2.1,0,0,0,2.091-2.091V171.956A2.082,2.082,0,0,0,405.975,169.882Zm.348,63.963a.349.349,0,0,1-.348.348h-6.691V775.029a53.659,53.659,0,0,1-53.6,53.6H62.639a53.659,53.659,0,0,1-53.6-53.6V307.077H2.056a.349.349,0,0,1-.348-.348V247.035a.349.349,0,0,1,.348-.348H9.043V231.963H2.056a.349.349,0,0,1-.348-.348V171.938a.35.35,0,0,1,.348-.348H9.043V55.338a53.659,53.659,0,0,1,53.6-53.6h283.05a53.659,53.659,0,0,1,53.6,53.6V171.607h4.391v.017h2.3a.349.349,0,0,1,.348.348Z" fill="#747474"/>
    </g>
  </g>
</svg>
