<?xml version="1.0" encoding="utf-8"?>
<!-- Generator: Adobe Illustrator 16.0.0, SVG Export Plug-In . SVG Version: 6.00 Build 0)  -->
<!DOCTYPE svg PUBLIC "-//W3C//DTD SVG 1.1//EN" "http://www.w3.org/Graphics/SVG/1.1/DTD/svg11.dtd">
<svg version="1.1" id="Layer_1" xmlns="http://www.w3.org/2000/svg" xmlns:xlink="http://www.w3.org/1999/xlink" x="0px" y="0px"
	 width="768px" height="768px" viewBox="0 0 768 768" enable-background="new 0 0 768 768" xml:space="preserve">
<g>
	<line fill="none" stroke="#B35047" x1="31.75" y1="0" x2="31.75" y2="768"/>
	<line fill="none" stroke="#B35047" x1="63.75" y1="0" x2="63.75" y2="768"/>
	<line fill="none" stroke="#B35047" x1="95.75" y1="0" x2="95.75" y2="768"/>
	<line fill="none" stroke="#B35047" x1="127.75" y1="0" x2="127.75" y2="768"/>
	<line fill="none" stroke="#B35047" x1="159.75" y1="0" x2="159.75" y2="768"/>
	<line fill="none" stroke="#B35047" x1="191.75" y1="0" x2="191.75" y2="768"/>
	<line fill="none" stroke="#B35047" x1="223.75" y1="0" x2="223.75" y2="768"/>
	<line fill="none" stroke="#B35047" x1="255.75" y1="0" x2="255.75" y2="768"/>
	<line fill="none" stroke="#B35047" x1="287.75" y1="0" x2="287.75" y2="768"/>
	<line fill="none" stroke="#B35047" x1="319.75" y1="0" x2="319.75" y2="768"/>
	<line fill="none" stroke="#B35047" x1="351.75" y1="0" x2="351.75" y2="768"/>
	<line fill="none" stroke="#B35047" x1="383.75" y1="0" x2="383.75" y2="768"/>
	<line fill="none" stroke="#B35047" x1="415.75" y1="0" x2="415.75" y2="768"/>
	<line fill="none" stroke="#B35047" x1="447.75" y1="0" x2="447.75" y2="768"/>
	<line fill="none" stroke="#B35047" x1="479.75" y1="0" x2="479.75" y2="768"/>
	<line fill="none" stroke="#B35047" x1="511.75" y1="0" x2="511.75" y2="768"/>
	<line fill="none" stroke="#B35047" x1="543.75" y1="0" x2="543.75" y2="768"/>
	<line fill="none" stroke="#B35047" x1="575.75" y1="0" x2="575.75" y2="768"/>
	<line fill="none" stroke="#B35047" x1="607.75" y1="0" x2="607.75" y2="768"/>
	<line fill="none" stroke="#B35047" x1="639.75" y1="0" x2="639.75" y2="768"/>
	<line fill="none" stroke="#B35047" x1="671.75" y1="0" x2="671.75" y2="768"/>
	<line fill="none" stroke="#B35047" x1="703.75" y1="0" x2="703.75" y2="768"/>
	<line fill="none" stroke="#B35047" x1="735.75" y1="0" x2="735.75" y2="768"/>
	<line fill="none" stroke="#B35047" x1="-0.25" y1="32" x2="767.75" y2="32"/>
	<line fill="none" stroke="#B35047" x1="-0.25" y1="64" x2="767.75" y2="64"/>
	<line fill="none" stroke="#B35047" x1="-0.25" y1="96" x2="767.75" y2="96"/>
	<line fill="none" stroke="#B35047" x1="-0.25" y1="128" x2="767.75" y2="128"/>
	<line fill="none" stroke="#B35047" x1="-0.25" y1="160" x2="767.75" y2="160"/>
	<line fill="none" stroke="#B35047" x1="-0.25" y1="192" x2="767.75" y2="192"/>
	<line fill="none" stroke="#B35047" x1="-0.25" y1="224" x2="767.75" y2="224"/>
	<line fill="none" stroke="#B35047" x1="-0.25" y1="256" x2="767.75" y2="256"/>
	<line fill="none" stroke="#B35047" x1="-0.25" y1="288" x2="767.75" y2="288"/>
	<line fill="none" stroke="#B35047" x1="-0.25" y1="320" x2="767.75" y2="320"/>
	<line fill="none" stroke="#B35047" x1="-0.25" y1="352" x2="767.75" y2="352"/>
	<line fill="none" stroke="#B35047" x1="-0.25" y1="384" x2="767.75" y2="384"/>
	<line fill="none" stroke="#B35047" x1="-0.25" y1="416" x2="767.75" y2="416"/>
	<line fill="none" stroke="#B35047" x1="-0.25" y1="448" x2="767.75" y2="448"/>
	<line fill="none" stroke="#B35047" x1="-0.25" y1="480" x2="767.75" y2="480"/>
	<line fill="none" stroke="#B35047" x1="-0.25" y1="512" x2="767.75" y2="512"/>
	<line fill="none" stroke="#B35047" x1="-0.25" y1="544" x2="767.75" y2="544"/>
	<line fill="none" stroke="#B35047" x1="-0.25" y1="576" x2="767.75" y2="576"/>
	<line fill="none" stroke="#B35047" x1="-0.25" y1="608" x2="767.75" y2="608"/>
	<line fill="none" stroke="#B35047" x1="-0.25" y1="640" x2="767.75" y2="640"/>
	<line fill="none" stroke="#B35047" x1="-0.25" y1="672" x2="767.75" y2="672"/>
	<line fill="none" stroke="#B35047" x1="-0.25" y1="704" x2="767.75" y2="704"/>
	<line fill="none" stroke="#B35047" x1="-0.25" y1="736" x2="767.75" y2="736"/>
	<rect x="-0.25" y="0" fill="none" stroke="#B35047" width="768" height="768"/>
</g>
<path d="M552.656-0.847L400.313,0c-48.115,0-81.575,31.499-80.563,72.131V289.25L159.75,544V705.35c0,35.149,31.11,63.899,64,63.899
	h151.681h97.152h71.167c48.113,0,96-33.5,96-73.381V72.131C639.75,32,600.769-0.847,552.656-0.847z M239.625,735.75
	c-26.441,0-47.875-21.434-47.875-47.875S213.184,640,239.625,640s47.875,21.434,47.875,47.875S266.067,735.75,239.625,735.75z
	 M239.625,575.75c-26.441,0-47.875-21.434-47.875-47.875S213.184,480,239.625,480s47.875,21.434,47.875,47.875
	S266.067,575.75,239.625,575.75z M400.313,735.75c-26.441,0-47.875-21.434-47.875-47.875S373.871,640,400.313,640
	s47.875,21.434,47.875,47.875S426.754,735.75,400.313,735.75z M400.75,575.75c-26.441,0-47.875-21.434-47.875-47.875
	S374.309,480,400.75,480s47.875,21.434,47.875,47.875S427.192,575.75,400.75,575.75z M400.75,415.75
	c-26.441,0-47.875-21.434-47.875-47.875c0-26.441,21.434-47.875,47.875-47.875s47.875,21.434,47.875,47.875
	C448.625,394.316,427.192,415.75,400.75,415.75z M400.75,255.75c-26.441,0-47.875-21.434-47.875-47.875
	c0-26.441,21.434-47.875,47.875-47.875s47.875,21.434,47.875,47.875C448.625,234.316,427.192,255.75,400.75,255.75z M400.75,127.75
	c-26.441,0-47.875-21.434-47.875-47.875C352.875,53.434,374.309,32,400.75,32s47.875,21.434,47.875,47.875
	C448.625,106.316,427.192,127.75,400.75,127.75z M559.188,320c26.441,0,47.875,21.434,47.875,47.875
	c0,26.441-21.434,47.875-47.875,47.875s-47.875-21.434-47.875-47.875C511.313,341.434,532.746,320,559.188,320z M511.313,207.875
	c0-26.441,21.434-47.875,47.875-47.875s47.875,21.434,47.875,47.875c0,26.441-21.434,47.875-47.875,47.875
	S511.313,234.316,511.313,207.875z M559.188,480c26.441,0,47.875,21.434,47.875,47.875s-21.434,47.875-47.875,47.875
	s-47.875-21.434-47.875-47.875S532.746,480,559.188,480z M559.625,735.75c-26.441,0-47.875-21.434-47.875-47.875
	S533.184,640,559.625,640s47.875,21.434,47.875,47.875S586.067,735.75,559.625,735.75z M559.625,127.75
	c-26.441,0-47.875-21.434-47.875-47.875C511.75,53.434,533.184,32,559.625,32S607.5,53.434,607.5,79.875
	C607.5,106.316,586.067,127.75,559.625,127.75z"/>
</svg>
