<?xml version="1.0" encoding="utf-8"?>
<!-- Generator: Adobe Illustrator 16.0.0, SVG Export Plug-In . SVG Version: 6.00 Build 0)  -->
<!DOCTYPE svg PUBLIC "-//W3C//DTD SVG 1.1//EN" "http://www.w3.org/Graphics/SVG/1.1/DTD/svg11.dtd">
<svg version="1.1" id="Layer_1" xmlns="http://www.w3.org/2000/svg" xmlns:xlink="http://www.w3.org/1999/xlink" x="0px" y="0px"
	 width="768px" height="768px" viewBox="0 0 768 768" enable-background="new 0 0 768 768" xml:space="preserve">
<g>
	<line fill="none" stroke="#B35047" x1="32" y1="0" x2="32" y2="768"/>
	<line fill="none" stroke="#B35047" x1="64" y1="0" x2="64" y2="768"/>
	<line fill="none" stroke="#B35047" x1="96" y1="0" x2="96" y2="768"/>
	<line fill="none" stroke="#B35047" x1="128" y1="0" x2="128" y2="768"/>
	<line fill="none" stroke="#B35047" x1="160" y1="0" x2="160" y2="768"/>
	<line fill="none" stroke="#B35047" x1="192" y1="0" x2="192" y2="768"/>
	<line fill="none" stroke="#B35047" x1="224" y1="0" x2="224" y2="768"/>
	<line fill="none" stroke="#B35047" x1="256" y1="0" x2="256" y2="768"/>
	<line fill="none" stroke="#B35047" x1="288" y1="0" x2="288" y2="768"/>
	<line fill="none" stroke="#B35047" x1="320" y1="0" x2="320" y2="768"/>
	<line fill="none" stroke="#B35047" x1="352" y1="0" x2="352" y2="768"/>
	<line fill="none" stroke="#B35047" x1="384" y1="0" x2="384" y2="768"/>
	<line fill="none" stroke="#B35047" x1="416" y1="0" x2="416" y2="768"/>
	<line fill="none" stroke="#B35047" x1="448" y1="0" x2="448" y2="768"/>
	<line fill="none" stroke="#B35047" x1="480" y1="0" x2="480" y2="768"/>
	<line fill="none" stroke="#B35047" x1="512" y1="0" x2="512" y2="768"/>
	<line fill="none" stroke="#B35047" x1="544" y1="0" x2="544" y2="768"/>
	<line fill="none" stroke="#B35047" x1="576" y1="0" x2="576" y2="768"/>
	<line fill="none" stroke="#B35047" x1="608" y1="0" x2="608" y2="768"/>
	<line fill="none" stroke="#B35047" x1="640" y1="0" x2="640" y2="768"/>
	<line fill="none" stroke="#B35047" x1="672" y1="0" x2="672" y2="768"/>
	<line fill="none" stroke="#B35047" x1="704" y1="0" x2="704" y2="768"/>
	<line fill="none" stroke="#B35047" x1="736" y1="0" x2="736" y2="768"/>
	<line fill="none" stroke="#B35047" x1="0" y1="32" x2="768" y2="32"/>
	<line fill="none" stroke="#B35047" x1="0" y1="64" x2="768" y2="64"/>
	<line fill="none" stroke="#B35047" x1="0" y1="96" x2="768" y2="96"/>
	<line fill="none" stroke="#B35047" x1="0" y1="128" x2="768" y2="128"/>
	<line fill="none" stroke="#B35047" x1="0" y1="160" x2="768" y2="160"/>
	<line fill="none" stroke="#B35047" x1="0" y1="192" x2="768" y2="192"/>
	<line fill="none" stroke="#B35047" x1="0" y1="224" x2="768" y2="224"/>
	<line fill="none" stroke="#B35047" x1="0" y1="256" x2="768" y2="256"/>
	<line fill="none" stroke="#B35047" x1="0" y1="288" x2="768" y2="288"/>
	<line fill="none" stroke="#B35047" x1="0" y1="320" x2="768" y2="320"/>
	<line fill="none" stroke="#B35047" x1="0" y1="352" x2="768" y2="352"/>
	<line fill="none" stroke="#B35047" x1="0" y1="384" x2="768" y2="384"/>
	<line fill="none" stroke="#B35047" x1="0" y1="416" x2="768" y2="416"/>
	<line fill="none" stroke="#B35047" x1="0" y1="448" x2="768" y2="448"/>
	<line fill="none" stroke="#B35047" x1="0" y1="480" x2="768" y2="480"/>
	<line fill="none" stroke="#B35047" x1="0" y1="512" x2="768" y2="512"/>
	<line fill="none" stroke="#B35047" x1="0" y1="544" x2="768" y2="544"/>
	<line fill="none" stroke="#B35047" x1="0" y1="576" x2="768" y2="576"/>
	<line fill="none" stroke="#B35047" x1="0" y1="608" x2="768" y2="608"/>
	<line fill="none" stroke="#B35047" x1="0" y1="640" x2="768" y2="640"/>
	<line fill="none" stroke="#B35047" x1="0" y1="672" x2="768" y2="672"/>
	<line fill="none" stroke="#B35047" x1="0" y1="704" x2="768" y2="704"/>
	<line fill="none" stroke="#B35047" x1="0" y1="736" x2="768" y2="736"/>
	<rect x="0" y="0" fill="none" stroke="#B35047" width="768" height="768"/>
</g>
<path fill="#444444" d="M353.033,256l-67.079-127.628H89.877v56.792H30.918v425.938h29.939l0.057,28.398h674.712l0.896-383.5
	H353.033z M505.033,473.838h-88.438v85.188h-63.852v-85.188h-88.438v-61.505h88.438v-85.188h63.852v85.188h88.438V473.838z"/>
<polygon fill="#444444" points="640,224 640,160.214 351.566,160.214 384,224 "/>
</svg>
