<?xml version="1.0" encoding="utf-8"?>
<!-- Generator: Adobe Illustrator 16.0.0, SVG Export Plug-In . SVG Version: 6.00 Build 0)  -->
<!DOCTYPE svg PUBLIC "-//W3C//DTD SVG 1.1//EN" "http://www.w3.org/Graphics/SVG/1.1/DTD/svg11.dtd">
<svg version="1.1" id="Layer_1" xmlns="http://www.w3.org/2000/svg" xmlns:xlink="http://www.w3.org/1999/xlink" x="0px" y="0px"
	 width="768px" height="768px" viewBox="0 0 768 768" enable-background="new 0 0 768 768" xml:space="preserve">
<g>
	<line fill="none" stroke="#B35047" x1="31.75" y1="0" x2="31.75" y2="768"/>
	<line fill="none" stroke="#B35047" x1="63.75" y1="0" x2="63.75" y2="768"/>
	<line fill="none" stroke="#B35047" x1="95.75" y1="0" x2="95.75" y2="768"/>
	<line fill="none" stroke="#B35047" x1="127.75" y1="0" x2="127.75" y2="768"/>
	<line fill="none" stroke="#B35047" x1="159.75" y1="0" x2="159.75" y2="768"/>
	<line fill="none" stroke="#B35047" x1="191.75" y1="0" x2="191.75" y2="768"/>
	<line fill="none" stroke="#B35047" x1="223.75" y1="0" x2="223.75" y2="768"/>
	<line fill="none" stroke="#B35047" x1="255.75" y1="0" x2="255.75" y2="768"/>
	<line fill="none" stroke="#B35047" x1="287.75" y1="0" x2="287.75" y2="768"/>
	<line fill="none" stroke="#B35047" x1="319.75" y1="0" x2="319.75" y2="768"/>
	<line fill="none" stroke="#B35047" x1="351.75" y1="0" x2="351.75" y2="768"/>
	<line fill="none" stroke="#B35047" x1="383.75" y1="0" x2="383.75" y2="768"/>
	<line fill="none" stroke="#B35047" x1="415.75" y1="0" x2="415.75" y2="768"/>
	<line fill="none" stroke="#B35047" x1="447.75" y1="0" x2="447.75" y2="768"/>
	<line fill="none" stroke="#B35047" x1="479.75" y1="0" x2="479.75" y2="768"/>
	<line fill="none" stroke="#B35047" x1="511.75" y1="0" x2="511.75" y2="768"/>
	<line fill="none" stroke="#B35047" x1="543.75" y1="0" x2="543.75" y2="768"/>
	<line fill="none" stroke="#B35047" x1="575.75" y1="0" x2="575.75" y2="768"/>
	<line fill="none" stroke="#B35047" x1="607.75" y1="0" x2="607.75" y2="768"/>
	<line fill="none" stroke="#B35047" x1="639.75" y1="0" x2="639.75" y2="768"/>
	<line fill="none" stroke="#B35047" x1="671.75" y1="0" x2="671.75" y2="768"/>
	<line fill="none" stroke="#B35047" x1="703.75" y1="0" x2="703.75" y2="768"/>
	<line fill="none" stroke="#B35047" x1="735.75" y1="0" x2="735.75" y2="768"/>
	<line fill="none" stroke="#B35047" x1="-0.25" y1="32" x2="767.75" y2="32"/>
	<line fill="none" stroke="#B35047" x1="-0.25" y1="64" x2="767.75" y2="64"/>
	<line fill="none" stroke="#B35047" x1="-0.25" y1="96" x2="767.75" y2="96"/>
	<line fill="none" stroke="#B35047" x1="-0.25" y1="128" x2="767.75" y2="128"/>
	<line fill="none" stroke="#B35047" x1="-0.25" y1="160" x2="767.75" y2="160"/>
	<line fill="none" stroke="#B35047" x1="-0.25" y1="192" x2="767.75" y2="192"/>
	<line fill="none" stroke="#B35047" x1="-0.25" y1="224" x2="767.75" y2="224"/>
	<line fill="none" stroke="#B35047" x1="-0.25" y1="256" x2="767.75" y2="256"/>
	<line fill="none" stroke="#B35047" x1="-0.25" y1="288" x2="767.75" y2="288"/>
	<line fill="none" stroke="#B35047" x1="-0.25" y1="320" x2="767.75" y2="320"/>
	<line fill="none" stroke="#B35047" x1="-0.25" y1="352" x2="767.75" y2="352"/>
	<line fill="none" stroke="#B35047" x1="-0.25" y1="384" x2="767.75" y2="384"/>
	<line fill="none" stroke="#B35047" x1="-0.25" y1="416" x2="767.75" y2="416"/>
	<line fill="none" stroke="#B35047" x1="-0.25" y1="448" x2="767.75" y2="448"/>
	<line fill="none" stroke="#B35047" x1="-0.25" y1="480" x2="767.75" y2="480"/>
	<line fill="none" stroke="#B35047" x1="-0.25" y1="512" x2="767.75" y2="512"/>
	<line fill="none" stroke="#B35047" x1="-0.25" y1="544" x2="767.75" y2="544"/>
	<line fill="none" stroke="#B35047" x1="-0.25" y1="576" x2="767.75" y2="576"/>
	<line fill="none" stroke="#B35047" x1="-0.25" y1="608" x2="767.75" y2="608"/>
	<line fill="none" stroke="#B35047" x1="-0.25" y1="640" x2="767.75" y2="640"/>
	<line fill="none" stroke="#B35047" x1="-0.25" y1="672" x2="767.75" y2="672"/>
	<line fill="none" stroke="#B35047" x1="-0.25" y1="704" x2="767.75" y2="704"/>
	<line fill="none" stroke="#B35047" x1="-0.25" y1="736" x2="767.75" y2="736"/>
	<rect x="-0.25" y="0" fill="none" stroke="#B35047" width="768" height="768"/>
</g>
<path d="M704.5,192v0.5h-32.875v-65H480.063v65H287.75v-64H96.375v64H63.5V192h-63v0.5H0v63h0.5v385H0v63h0.5v0.5h63v-0.5h641v0.5
	h63v-0.5v-63v-385v-63V192H704.5z M704.5,640.5h-641v-385h641V640.5z"/>
<rect x="96.375" y="415.784" width="191.375" height="64.432"/>
<polygon points="671.438,415.784 607.966,415.784 607.966,352.312 543.534,352.312 543.534,415.784 480.063,415.784 
	480.063,480.216 543.534,480.216 543.534,543.687 607.966,543.687 607.966,480.216 671.438,480.216 "/>
</svg>
