<?xml version="1.0" encoding="utf-8"?>
<!-- Generator: Adobe Illustrator 16.0.0, SVG Export Plug-In . SVG Version: 6.00 Build 0)  -->
<!DOCTYPE svg PUBLIC "-//W3C//DTD SVG 1.1//EN" "http://www.w3.org/Graphics/SVG/1.1/DTD/svg11.dtd">
<svg version="1.1" id="Layer_1" xmlns="http://www.w3.org/2000/svg" xmlns:xlink="http://www.w3.org/1999/xlink" x="0px" y="0px"
	 width="768px" height="768px" viewBox="0 0 768 768" enable-background="new 0 0 768 768" xml:space="preserve">
<g>
	<line fill="none" stroke="#B35047" x1="32" y1="0" x2="32" y2="768"/>
	<line fill="none" stroke="#B35047" x1="64" y1="0" x2="64" y2="768"/>
	<line fill="none" stroke="#B35047" x1="96" y1="0" x2="96" y2="768"/>
	<line fill="none" stroke="#B35047" x1="128" y1="0" x2="128" y2="768"/>
	<line fill="none" stroke="#B35047" x1="160" y1="0" x2="160" y2="768"/>
	<line fill="none" stroke="#B35047" x1="192" y1="0" x2="192" y2="768"/>
	<line fill="none" stroke="#B35047" x1="224" y1="0" x2="224" y2="768"/>
	<line fill="none" stroke="#B35047" x1="256" y1="0" x2="256" y2="768"/>
	<line fill="none" stroke="#B35047" x1="288" y1="0" x2="288" y2="768"/>
	<line fill="none" stroke="#B35047" x1="320" y1="0" x2="320" y2="768"/>
	<line fill="none" stroke="#B35047" x1="352" y1="0" x2="352" y2="768"/>
	<line fill="none" stroke="#B35047" x1="384" y1="0" x2="384" y2="768"/>
	<line fill="none" stroke="#B35047" x1="416" y1="0" x2="416" y2="768"/>
	<line fill="none" stroke="#B35047" x1="448" y1="0" x2="448" y2="768"/>
	<line fill="none" stroke="#B35047" x1="480" y1="0" x2="480" y2="768"/>
	<line fill="none" stroke="#B35047" x1="512" y1="0" x2="512" y2="768"/>
	<line fill="none" stroke="#B35047" x1="544" y1="0" x2="544" y2="768"/>
	<line fill="none" stroke="#B35047" x1="576" y1="0" x2="576" y2="768"/>
	<line fill="none" stroke="#B35047" x1="608" y1="0" x2="608" y2="768"/>
	<line fill="none" stroke="#B35047" x1="640" y1="0" x2="640" y2="768"/>
	<line fill="none" stroke="#B35047" x1="672" y1="0" x2="672" y2="768"/>
	<line fill="none" stroke="#B35047" x1="704" y1="0" x2="704" y2="768"/>
	<line fill="none" stroke="#B35047" x1="736" y1="0" x2="736" y2="768"/>
	<line fill="none" stroke="#B35047" x1="0" y1="32" x2="768" y2="32"/>
	<line fill="none" stroke="#B35047" x1="0" y1="64" x2="768" y2="64"/>
	<line fill="none" stroke="#B35047" x1="0" y1="96" x2="768" y2="96"/>
	<line fill="none" stroke="#B35047" x1="0" y1="128" x2="768" y2="128"/>
	<line fill="none" stroke="#B35047" x1="0" y1="160" x2="768" y2="160"/>
	<line fill="none" stroke="#B35047" x1="0" y1="192" x2="768" y2="192"/>
	<line fill="none" stroke="#B35047" x1="0" y1="224" x2="768" y2="224"/>
	<line fill="none" stroke="#B35047" x1="0" y1="256" x2="768" y2="256"/>
	<line fill="none" stroke="#B35047" x1="0" y1="288" x2="768" y2="288"/>
	<line fill="none" stroke="#B35047" x1="0" y1="320" x2="768" y2="320"/>
	<line fill="none" stroke="#B35047" x1="0" y1="352" x2="768" y2="352"/>
	<line fill="none" stroke="#B35047" x1="0" y1="384" x2="768" y2="384"/>
	<line fill="none" stroke="#B35047" x1="0" y1="416" x2="768" y2="416"/>
	<line fill="none" stroke="#B35047" x1="0" y1="448" x2="768" y2="448"/>
	<line fill="none" stroke="#B35047" x1="0" y1="480" x2="768" y2="480"/>
	<line fill="none" stroke="#B35047" x1="0" y1="512" x2="768" y2="512"/>
	<line fill="none" stroke="#B35047" x1="0" y1="544" x2="768" y2="544"/>
	<line fill="none" stroke="#B35047" x1="0" y1="576" x2="768" y2="576"/>
	<line fill="none" stroke="#B35047" x1="0" y1="608" x2="768" y2="608"/>
	<line fill="none" stroke="#B35047" x1="0" y1="640" x2="768" y2="640"/>
	<line fill="none" stroke="#B35047" x1="0" y1="672" x2="768" y2="672"/>
	<line fill="none" stroke="#B35047" x1="0" y1="704" x2="768" y2="704"/>
	<line fill="none" stroke="#B35047" x1="0" y1="736" x2="768" y2="736"/>
	<rect x="0" y="0" fill="none" stroke="#B35047" width="768" height="768"/>
</g>
<path d="M736,255h-96v32h-31.993L576,255.25l-15.701-15.824L719.117,80.607l-31.725-31.724L528.604,207.672L512.361,191.5H384v-33
	h128v-63H192v63h128v33H195.536l-29,32H96.5V351h-33V223h-63v352h63V447h33v128.066h64.709L15.383,720.892l31.724,31.725
	l177.551-177.551h3.61L288,671h256l64-96h32v64h96l32-32V287L736,255z M159.5,512.066V286.5h34.964l29-32h254.434l1.515,2.363
	L224.209,512.066H159.5z M704,437.5V575l-32.5-0.5l0.5-62.974l-127.791-0.035L544,575l-24,32H320l-51.574-75.702l243.939-243.939
	L544.56,319l-0.115,32H672l-0.363-32H704V437.5z"/>
</svg>
