<?xml version="1.0" encoding="utf-8"?>
<!-- Generator: Adobe Illustrator 16.0.0, SVG Export Plug-In . SVG Version: 6.00 Build 0)  -->
<!DOCTYPE svg PUBLIC "-//W3C//DTD SVG 1.1//EN" "http://www.w3.org/Graphics/SVG/1.1/DTD/svg11.dtd">
<svg version="1.1" id="Layer_1" xmlns="http://www.w3.org/2000/svg" xmlns:xlink="http://www.w3.org/1999/xlink" x="0px" y="0px"
	 width="700px" height="700px" viewBox="0 0 700 700" enable-background="new 0 0 700 700" xml:space="preserve">
<path d="M613.95,699.307c-32.178,0-49.251-16.81-61.716-29.084c-10.2-10.042-14.79-14.116-26.041-14.116
	c-11.25,0-15.837,4.074-26.036,14.116c-12.467,12.274-29.539,29.084-61.717,29.084s-49.249-16.81-61.713-29.084
	c-10.2-10.042-14.788-14.116-26.037-14.116c-11.247,0-15.834,4.074-26.032,14.116c-12.464,12.274-29.537,29.084-61.713,29.084
	c-32.178,0-49.25-16.81-61.715-29.084c-10.199-10.042-14.786-14.116-26.035-14.116s-15.836,4.074-26.035,14.116
	c-12.466,12.274-29.538,29.084-61.716,29.084c-32.176,0-49.248-16.81-61.714-29.084c-10.198-10.042-14.784-14.116-26.032-14.116
	v-58.05c32.176,0,49.249,16.808,61.714,29.082c10.198,10.042,14.785,14.117,26.032,14.117c11.25,0,15.836-4.075,26.036-14.117
	c12.465-12.274,29.538-29.082,61.715-29.082c32.179,0,49.249,16.808,61.714,29.082c10.199,10.042,14.787,14.117,26.036,14.117
	c11.248,0,15.834-4.075,26.032-14.116c12.465-12.275,29.537-29.083,61.713-29.083c32.178,0,49.25,16.808,61.716,29.082
	c10.199,10.042,14.786,14.117,26.034,14.117c11.249,0,15.839-4.075,26.038-14.117c12.463-12.274,29.536-29.082,61.715-29.082
	c32.181,0,49.251,16.808,61.719,29.082c10.199,10.042,14.787,14.117,26.038,14.117s15.84-4.075,26.041-14.118
	c12.465-12.273,29.537-29.081,61.716-29.081v58.05c-11.251,0-15.839,4.074-26.038,14.116
	C663.202,682.498,646.13,699.307,613.95,699.307z"/>
<g>
	<path d="M180.164,422.116c-7.48,4.983-13.791,10.518-19.585,15.599c-13.693,12.007-22.737,19.94-43.882,19.94
		c-21.143,0-30.189-7.934-43.882-19.94c-15.932-13.973-35.761-31.36-73.116-31.36v58.051c21.144,0,30.189,7.932,43.881,19.94
		c15.933,13.972,35.761,31.36,73.117,31.36c30.224,0,48.971-11.382,63.467-23.129V422.116z"/>
	<path d="M628.587,437.715c-13.693,12.007-22.74,19.94-43.886,19.94s-30.192-7.934-43.887-19.94
		c-7.717-6.767-16.357-14.332-27.451-20.339v68.529c15.639,13.673,35.36,29.801,71.338,29.801c37.356,0,57.186-17.389,73.121-31.36
		c13.691-12.009,22.737-19.94,43.885-19.94v-58.051C664.351,406.354,644.521,423.742,628.587,437.715z"/>
</g>
<path d="M462.754,70.876v-40.5h-76.95V16.2c0-8.948-7.254-16.2-16.201-16.2h-41.85c-8.947,0-16.201,7.252-16.201,16.2v318.741
	c-44.769,15.408-76.951,57.862-76.951,107.863c0,63.004,51.074,114.078,114.076,114.078s114.077-51.074,114.077-114.078
	c0-49.997-32.182-92.455-76.95-107.863V211.277h76.95v-40.5h-76.95v-28.35h76.95v-40.5h-76.95v-31.05H462.754z"/>
</svg>
