<?xml version="1.0" encoding="utf-8"?> <!-- Generator: IcoMoon.io --> <!DOCTYPE svg PUBLIC "-//W3C//DTD SVG 1.1//EN" "http://www.w3.org/Graphics/SVG/1.1/DTD/svg11.dtd"> <svg width="500.00000000000006" height="500" viewBox="0 0 500 500" data-tags="download" style="margin-left: 4px; margin-top: 4px;" data-licenselink="http://creativecommons.org/licenses/by-sa/3.0/" data-license="CC BY-SA 3.0" data-authorlink="http://danielbruce.se/" data-author="Daniel Bruce" class="metadata" xmlns="http://www.w3.org/2000/svg" xmlns:xlink="http://www.w3.org/1999/xlink"><path d="M 483.5,338.6l-79.6-53.55l-49.075,0 l 85,65.2l-88.625,0 c-2.55,0-4.825,1.3-6,3.325l-20.4,55.875L 175.2,409.45 l-20.425-55.875 c-1.125-2.025-3.45-3.325-6-3.325L 60.175,350.25 l 85.025-65.2L 96.1,285.050 l-79.575,53.55c-11.85,7.075-18.925,23.4-15.75,36.225l 14.025,76.85 c 3.175,12.85, 17.275,23.375, 31.275,23.375l 407.825,0 c 14.050,0, 28.125-10.525, 31.3-23.375l 14.025-76.85 C 502.45,361.975, 495.35,345.675, 483.5,338.6z M 380.025,178.050L 297.5,178.050 l0-128 l-95,0 l0,128 L 120,178.050 l 130,122L 380.025,178.050z" ></path></svg>