<?xml version="1.0" encoding="utf-8"?>
<!-- Generator: Adobe Illustrator 16.0.0, SVG Export Plug-In . SVG Version: 6.00 Build 0)  -->
<!DOCTYPE svg PUBLIC "-//W3C//DTD SVG 1.1//EN" "http://www.w3.org/Graphics/SVG/1.1/DTD/svg11.dtd">
<svg version="1.1" id="Layer_1" xmlns="http://www.w3.org/2000/svg" xmlns:xlink="http://www.w3.org/1999/xlink" x="0px" y="0px"
	 width="512px" height="512px" viewBox="0 0 512 512" enable-background="new 0 0 512 512" xml:space="preserve">
<path d="M256,0C149.969,0,64,85.969,64,192c0,106.031,192,320,192,320s192-213.969,192-320C448,85.969,362.031,0,256,0z M256,320
	c-70.688,0-128-57.312-128-128c0-70.688,57.312-128,128-128c70.688,0,128,57.313,128,128C384,262.688,326.688,320,256,320z"/>
<path d="M233.776,231.696c-5.535,5.632-8.319,12.512-8.319,20.672c0,8.816,3.151,16.224,9.439,22.224
	c5.809,5.536,12.784,8.305,20.944,8.305c8.336,0,15.536-3.008,21.536-9.057c6-6.048,8.992-13.248,8.992-21.6
	c0-8.064-2.912-15.088-8.721-21.088c-5.808-6.096-12.815-9.136-20.976-9.136C247.6,222,239.968,225.232,233.776,231.696
	L233.776,231.696z M230.256,102.608c-4.784,7.216-7.152,16.176-7.152,26.864c0,8.72,1.473,18.336,4.416,28.832
	c2.944,10.495,6.96,20.336,12.017,29.535c6.848,12.465,12.159,18.704,15.903,18.704c3.84,0,8.912-4.88,15.185-14.624
	c5.536-8.624,9.952-18.432,13.279-29.456c3.328-11.023,4.992-21.312,4.992-30.88c0-14.432-3.903-25.6-11.68-33.472
	c-5.808-6-12.88-9.008-21.216-9.008C244.752,89.104,236.16,93.616,230.256,102.608L230.256,102.608z"/>
</svg>
