<?xml version="1.0" encoding="utf-8"?>
<!-- Generator: Adobe Illustrator 16.0.0, SVG Export Plug-In . SVG Version: 6.00 Build 0)  -->
<!DOCTYPE svg PUBLIC "-//W3C//DTD SVG 1.1//EN" "http://www.w3.org/Graphics/SVG/1.1/DTD/svg11.dtd">
<svg version="1.1" id="Layer_1" xmlns="http://www.w3.org/2000/svg" xmlns:xlink="http://www.w3.org/1999/xlink" x="0px" y="0px"
	 width="600px" height="600px" viewBox="0 0 600 600" enable-background="new 0 0 600 600" xml:space="preserve">
<path fill="#66CC00" d="M365.064,279.886c22.137,5.688,36.896,19.892,37.507,53.403v143.178c0,69.3,41.446,107.363,94.876,107.363
	c56.815,0,99.983-45.998,99.983-96.544c0-67.635-48.325-190.921-45.44-285.798c28.407,2.275,34.621-14.759,25.521-45.442
	C538.34,63.997,483.244,15.698,415.608,0.358v36.925c51.157,36.953,85.778,99.426,94.878,199.437
	c0,77.842,41.504,194.861,41.504,244.297c0,35.231-29.019,59.091-55.708,57.426c-28.406-1.774-48.824-32.402-51.099-68.8V314.562
	c0-38.089-26.744-74.43-75.569-84.085L365.064,279.886z"/>
<rect x="340.594" y="2.077" fill="#66CC00" width="42.057" height="553.954"/>
<rect x="84.923" y="2.077" fill="#66CC00" width="42.057" height="553.954"/>
<rect x="42.312" y="556.031" fill="#66CC00" width="382.95" height="42.612"/>
<rect x="127.535" y="215.137" fill="#66CC00" width="212.505" height="340.894"/>
<rect x="127.535" y="2.077" fill="#66CC00" width="212.505" height="42.611"/>
</svg>
