<?xml version="1.0" encoding="utf-8"?>
<!-- Generator: Adobe Illustrator 16.0.0, SVG Export Plug-In . SVG Version: 6.00 Build 0)  -->
<!DOCTYPE svg PUBLIC "-//W3C//DTD SVG 1.1//EN" "http://www.w3.org/Graphics/SVG/1.1/DTD/svg11.dtd">
<svg version="1.1" id="Layer_1" xmlns="http://www.w3.org/2000/svg" xmlns:xlink="http://www.w3.org/1999/xlink" x="0px" y="0px"
	 width="1024px" height="1024px" viewBox="0 0 1024 1024" enable-background="new 0 0 1024 1024" xml:space="preserve">
<g>
	<path d="M89.946,414.778c53.639,92.908,21.513,211.92-71.708,266.224L96.99,817.408l224.191-224.191
		c-10.63-24.943-16.518-52.393-16.518-81.219c0-114.508,92.826-207.334,207.337-207.334c28.825,0,56.273,5.888,81.216,16.518
		L733.19,181.207C662.507,151.819,612.762,81.762,612.762-0.002H411.504c0.266,33.41-8.074,67.282-25.958,98.252
		c-53.725,93.057-173.156,124.702-266.862,70.758L18.06,343.3C47.03,359.772,72.11,383.888,89.946,414.778z"/>
	<path d="M1005.942,343.762l-79.099-137.005L702.817,430.784c10.629,24.942,16.516,52.389,16.516,81.213
		C719.329,626.509,626.508,719.332,512,719.332c-28.825,0-56.273-5.887-81.215-16.516L290.003,843.598
		c70.67,29.134,120.541,98.873,120.961,180.399h201.254c-0.086-33.073,8.271-66.569,25.966-97.218
		c53.636-92.906,172.776-124.594,266.414-71.012l100.626-174.29c-28.78-16.466-53.692-40.498-71.435-71.229
		C880.064,517.196,912.373,397.946,1005.942,343.762z"/>
</g>
<rect x="473.15" y="-166.573" transform="matrix(0.7071 0.7071 -0.7071 0.7071 511.3639 -213.293)" width="80" height="1354.395"/>
</svg>
