<?xml version="1.0" encoding="utf-8"?>
<!-- Generator: Adobe Illustrator 16.0.0, SVG Export Plug-In . SVG Version: 6.00 Build 0)  -->
<!DOCTYPE svg PUBLIC "-//W3C//DTD SVG 1.1//EN" "http://www.w3.org/Graphics/SVG/1.1/DTD/svg11.dtd">
<svg version="1.1" id="Layer_1" xmlns="http://www.w3.org/2000/svg" xmlns:xlink="http://www.w3.org/1999/xlink" x="0px" y="0px"
	 width="700px" height="700px" viewBox="0 0 700 700" enable-background="new 0 0 700 700" xml:space="preserve">
<path fill-rule="evenodd" clip-rule="evenodd" fill="#6BB81C" d="M350.273-0.441C156.322-0.441-0.847,156.698-0.847,350.618
	c0,193.31,157.169,350.481,351.121,350.481c193.279,0,350.388-157.171,350.388-350.481C700.661,156.698,543.553-0.441,350.273-0.441
	 M648.962,350.618c0,67.958-23.08,130.954-61.747,181.436c-11.267-8.1-22.471-31.178-11.876-55.476
	c11.267-24.297,13.702-79.832,11.876-101.633c-2.497-21.831-14.371-74.23-44.94-74.23c-30.509-0.61-51.092-10.597-69.785-47.376
	c-37.452-75.449,71.063-89.791,33.674-131.564c-10.656-11.844-65.522,48.017-73.621-31.817c-0.609-5.603,4.992-14.341,12.482-23.079
	C563.525,106.793,648.962,218.416,648.962,350.618 M309.108,54.425c-7.491,13.701-26.185,19.334-38.06,29.929
	c-24.966,22.439-35.562,19.335-48.654,41.166c-13.702,21.799-57.363,52.979-57.363,68.568c0,15.588,21.861,34.314,33.065,30.569
	c11.205-3.745,39.887-3.137,57.363,2.497c16.869,6.241,142.798,12.453,102.913,118.47c-13.092,34.285-68.627,28.074-83.548,84.188
	c-1.887,8.1-9.986,43.662-10.655,54.866c-0.609,17.416,13.091,84.767-4.324,84.767c-16.868,0-63.635-59.8-63.635-71.004
	c0-10.658-11.813-48.716-11.813-81.112c0-32.426-55.537-32.426-55.537-75.45c0-39.276,29.96-58.61,23.079-77.304
	c-6.211-18.727-59.25-19.335-81.05-21.222C109.554,143.574,199.984,69.375,309.108,54.425 M256.068,634.357
	c17.478-9.378,19.364-21.861,36.171-22.471c18.086-0.67,33.675-7.489,54.256-11.874c18.696-4.384,52.37-23.018,81.722-25.576
	c24.906-1.827,73.561,1.279,86.654,24.968c-47.377,31.787-104.131,49.934-164.599,49.934
	C317.207,649.338,285.419,644.345,256.068,634.357z"/>
</svg>
