<?xml version="1.0" encoding="utf-8"?>
<!-- Generator: Adobe Illustrator 17.0.0, SVG Export Plug-In . SVG Version: 6.00 Build 0)  -->
<!DOCTYPE svg PUBLIC "-//W3C//DTD SVG 1.1//EN" "http://www.w3.org/Graphics/SVG/1.1/DTD/svg11.dtd">
<svg version="1.1" id="Capa_1" xmlns="http://www.w3.org/2000/svg" xmlns:xlink="http://www.w3.org/1999/xlink" x="0px" y="0px"
	 width="52px" height="52px" viewBox="0 0 52 52" enable-background="new 0 0 52 52" xml:space="preserve">
<g id="XVZPlC_1_">
	<g>
		<path d="M25.888,3.185c0.68,0,1.395,0.047,1.598,0.106c0.123,0.036,0.247,0.067,0.373,0.082
			c9.667,1.113,16.243,6.231,19.611,15.343c0.469,1.271,0.719,2.625,0.965,3.979c0.197,1.087,0.38,2.514,0.38,3.194
			s-0.055,1.496-0.12,1.824c-0.04,0.198-0.074,0.397-0.091,0.597c-0.778,9.498-8.401,18.041-17.756,19.873
			c-0.619,0.121-1.241,0.227-1.863,0.329c-1.031,0.168-2.418,0.304-3.098,0.304s-1.443-0.055-1.707-0.122
			c-0.16-0.04-0.321-0.076-0.483-0.091c-9.755-0.968-17.87-8.208-19.878-17.766c-0.129-0.615-0.235-1.234-0.336-1.855
			c-0.166-1.029-0.299-2.414-0.299-3.094s0.053-1.42,0.118-1.654c0.039-0.142,0.073-0.285,0.088-0.43
			C4.483,13.43,11.965,5.415,22.265,3.598c0.399-0.07,0.797-0.14,1.196-0.208C24.122,3.277,25.209,3.185,25.888,3.185z
			 M7.619,17.371c0.081,0.063,0.263,0.047,0.408-0.037c0.088-0.051,0.174-0.104,0.256-0.164c2.315-1.718,4.888-2.227,7.46-0.916
			c2.807,1.432,5.475,3.148,8.141,4.838c4.463,2.827,8.785,5.89,13.351,8.532c2.177,1.261,4.773,1.805,7.198,2.617
			c0.278,0.093,0.917-0.093,0.979-0.282c0.164-0.501,0.299-1.011,0.418-1.506c0.203-0.839-0.439-1.936-1.424-2.435
			c-0.969-0.491-1.882-0.961-2.747-1.51c-4.585-2.914-8.483-6.658-12.373-10.412c-2.522-2.433-5.044-4.961-8.427-6.14
			c-4.002-1.394-6.448-1.576-9.375,1.79c-0.342,0.394-0.752,0.735-1.049,1.159c-0.624,0.891-1.235,1.792-1.844,2.694
			C7.974,16.515,7.538,17.308,7.619,17.371z M17.118,42.379c0.37-0.282,0.868-0.328,1.679-0.264c0.738,0.059,1.48,0.188,2.198,0.371
			c4.312,1.1,8.626,1.916,13.137,1.46c2.605-0.263,4.3-1.725,6.02-3.404c0.791-0.771,0.543-1.275-0.548-1.103
			c-1.178,0.186-2.277,0.354-3.38,0.386c-6.611,0.19-12.967-1.022-19.021-3.728c-1.87-0.834-3.728-1.697-5.622-2.474
			c-0.831-0.341-1.677-0.581-2.532-0.531c-1.103,0.065-1.529,1.464-1.01,2.439c1.587,2.976,3.75,5.384,6.534,7.285
			C15.485,43.441,16.354,42.96,17.118,42.379z M45.261,19.546c-2.139-7.043-9.128-13.073-16.77-13.777
			c-1.1-0.101-1.17,0.281-0.145,0.691c1.02,0.408,2.099,0.859,3.114,1.426c3.33,1.863,5.585,4.864,7.834,7.849
			c1.165,1.544,2.348,3.081,3.611,4.544c0.358,0.416,0.764,0.792,1.239,1.025C44.947,21.698,45.582,20.603,45.261,19.546z"/>
	</g>
</g>
</svg>
