<?xml version="1.0" encoding="utf-8"?>
<!-- Generator: Adobe Illustrator 16.0.0, SVG Export Plug-In . SVG Version: 6.00 Build 0)  -->
<!DOCTYPE svg PUBLIC "-//W3C//DTD SVG 1.1//EN" "http://www.w3.org/Graphics/SVG/1.1/DTD/svg11.dtd">
<svg version="1.1" id="Layer_1" xmlns="http://www.w3.org/2000/svg" xmlns:xlink="http://www.w3.org/1999/xlink" x="0px" y="0px"
	 width="600px" height="600px" viewBox="0 0 600 600" enable-background="new 0 0 600 600" xml:space="preserve">
<path fill-rule="evenodd" clip-rule="evenodd" fill="#6BB81C" d="M219.787,246.673c-30.071,29.372-30.071,77.698,0,107.421
	l-27.203,26.505c-45.145-44.406-45.145-116.372,0-161.133 M138.136,165.756l27.207,27.205c-60.496,59.096-60.496,155.399,0,214.845
	l-27.207,26.854C62.604,360.18,62.604,240.239,138.136,165.756z"/>
<path fill-rule="evenodd" clip-rule="evenodd" fill="#6BB81C" d="M298.92,247.056c29.725,0,53.71,23.988,53.71,53.712
	c0,29.337-23.985,53.711-53.71,53.711c-29.375,0-53.709-24.374-53.709-53.711C245.211,271.044,269.545,247.056,298.92,247.056z"/>
<path fill-rule="evenodd" clip-rule="evenodd" fill="#6BB81C" d="M83.342,112.395l27.242,26.506
	c-90.252,89.169-90.252,233.481,0,322.269l-27.242,27.203C-22.26,384.554-22.26,215.899,83.342,112.395z"/>
<path fill-rule="evenodd" clip-rule="evenodd" fill="#6BB81C" d="M380.187,246.673c30.106,29.372,30.106,77.698,0,107.421
	l27.241,26.505c45.457-44.406,45.457-116.372,0-161.133 M462.188,165.756l-27.208,27.205c60.146,59.096,60.146,155.399,0,214.845
	l27.208,26.854C537.404,360.18,537.404,240.239,462.188,165.756z"/>
<path fill-rule="evenodd" clip-rule="evenodd" fill="#6BB81C" d="M516.631,112.395L489.426,138.9
	c90.57,89.169,90.57,233.481,0,322.269l27.205,27.203C622.269,384.554,622.269,215.899,516.631,112.395z"/>
</svg>
