<?xml version="1.0" encoding="utf-8"?>
<!-- Generator: Adobe Illustrator 16.0.0, SVG Export Plug-In . SVG Version: 6.00 Build 0)  -->
<!DOCTYPE svg PUBLIC "-//W3C//DTD SVG 1.1//EN" "http://www.w3.org/Graphics/SVG/1.1/DTD/svg11.dtd">
<svg version="1.1" id="Layer_1" xmlns="http://www.w3.org/2000/svg" xmlns:xlink="http://www.w3.org/1999/xlink" x="0px" y="0px"
	 width="600px" height="600px" viewBox="0 0 600 600" enable-background="new 0 0 600 600" xml:space="preserve">
<path fill-rule="evenodd" clip-rule="evenodd" fill="#6BB81C" d="M300.108,1.128c165.235,0,298.98,133.745,298.98,298.979
	c0,164.759-133.745,298.98-298.98,298.98c-164.758,0-298.979-134.221-298.979-298.98C1.129,134.874,135.35,1.128,300.108,1.128z"/>
<path fill-rule="evenodd" clip-rule="evenodd" fill="#FFFFFF" d="M189.851,400.633c-54.935-58.914-54.069-151.912,3.071-209.052
	c23.488-23.92,52.729-37.676,83.266-42.52l-1.73-50.522c-42.563,5.32-84.175,24.396-116.529,57.14
	c-76.605,77.082-77.514,201.57-3.071,280.38l-42.52,42.52l134.178,7.527l-0.434-141.704L189.851,400.633 M351.495,110.088
	l0.476,141.704l55.799-56.231c54.935,58.914,54.026,151.481-3.113,209.051c-23.012,23.489-52.252,37.677-82.834,42.089l1.773,50.478
	c42.52-4.844,83.743-23.919,116.486-57.139c76.648-77.038,77.512-201.527,3.113-279.905l42.089-42.996L351.495,110.088z"/>
</svg>
