<?xml version="1.0" encoding="utf-8"?>
<!-- Generator: Adobe Illustrator 16.0.0, SVG Export Plug-In . SVG Version: 6.00 Build 0)  -->
<!DOCTYPE svg PUBLIC "-//W3C//DTD SVG 1.1//EN" "http://www.w3.org/Graphics/SVG/1.1/DTD/svg11.dtd">
<svg version="1.1" id="Layer_1" xmlns="http://www.w3.org/2000/svg" xmlns:xlink="http://www.w3.org/1999/xlink" x="0px" y="0px"
	 width="600px" height="600px" viewBox="0 0 600 600" enable-background="new 0 0 600 600" xml:space="preserve">
<polygon fill-rule="evenodd" clip-rule="evenodd" fill="#A1A1AB" points="0.439,600 0.439,600 0.439,600 0.439,120.701 
	180.175,120.701 180.175,149.487 91.108,149.487 91.108,179.444 180.175,179.444 180.175,209.399 121.063,209.399 121.063,239.356 
	180.175,239.356 180.175,269.312 121.063,269.312 121.063,299.268 180.175,299.268 180.175,329.224 121.063,329.224 121.063,359.18 
	180.175,359.18 180.175,389.136 91.108,389.136 91.108,419.093 180.175,419.093 180.175,420.264 180.996,420.264 180.996,508.961 
	210.95,508.961 210.95,420.264 240.907,420.264 240.907,479.005 270.863,479.005 270.863,420.264 300.82,420.264 300.82,479.005 
	330.775,479.005 330.775,420.264 360.73,420.264 360.73,479.005 390.688,479.005 390.688,420.264 420.645,420.264 420.645,508.961 
	450.598,508.961 450.598,420.264 480.557,420.264 480.557,479.005 510.512,479.005 510.512,420.264 540.469,420.264 
	540.469,479.005 570.424,479.005 570.424,420.264 599.561,420.264 599.561,600 "/>
</svg>
