<?xml version="1.0" encoding="utf-8"?>
<!-- Generator: Adobe Illustrator 16.0.0, SVG Export Plug-In . SVG Version: 6.00 Build 0)  -->
<!DOCTYPE svg PUBLIC "-//W3C//DTD SVG 1.1//EN" "http://www.w3.org/Graphics/SVG/1.1/DTD/svg11.dtd">
<svg version="1.1" id="Layer_1" xmlns="http://www.w3.org/2000/svg" xmlns:xlink="http://www.w3.org/1999/xlink" x="0px" y="0px"
	 width="600px" height="600px" viewBox="0 0 600 600" enable-background="new 0 0 600 600" xml:space="preserve">
<path fill="#211919" d="M297.419,433.581c-6.03,6.029-15.79,6.049-21.796,0.041L168.664,326.664
	c-6.007-6.008-5.988-15.766,0.042-21.797l155.596-155.596c6.03-6.03,15.788-6.049,21.796-0.042l106.959,106.958
	c6.008,6.007,5.988,15.766-0.042,21.796L297.419,433.581z"/>
<rect x="44.784" y="4.782" transform="matrix(0.7071 0.7071 -0.7071 0.7071 68.7142 -29.048)" fill="#211919" width="49.275" height="127.28"/>
<rect x="99.784" y="59.782" transform="matrix(0.7071 0.7071 -0.7071 0.7071 123.7142 -51.8297)" fill="#211919" width="49.275" height="127.28"/>
<rect x="154.784" y="115.782" transform="matrix(0.7071 0.7071 -0.7071 0.7071 179.4213 -74.3186)" fill="#211919" width="49.275" height="127.28"/>
<rect x="198.11" y="179.216" transform="matrix(0.7071 -0.7071 0.7071 0.7071 -88.9946 212.5806)" fill="#211919" width="28" height="69"/>
<rect x="401.55" y="93.526" transform="matrix(0.7071 -0.7071 0.7071 0.7071 13.3752 357.764)" fill="#211919" width="74" height="138.422"/>
<rect x="506.346" y="467.945" transform="matrix(-0.7071 -0.7071 0.7071 -0.7071 530.5478 1282.9333)" fill="#211919" width="49.274" height="127.279"/>
<rect x="451.346" y="412.944" transform="matrix(-0.7071 -0.7071 0.7071 -0.7071 475.5398 1150.1509)" fill="#211919" width="49.275" height="127.279"/>
<rect x="396.346" y="356.944" transform="matrix(-0.7071 -0.7071 0.7071 -0.7071 421.2491 1015.662)" fill="#211919" width="49.275" height="127.279"/>
<rect x="374.295" y="351.789" transform="matrix(-0.7071 0.7071 -0.7071 -0.7071 936.0077 384.8711)" fill="#211919" width="28" height="69"/>
<line fill="none" x1="33" y1="33" x2="571.5" y2="571.5"/>
<rect x="192.667" y="357.745" transform="matrix(0.7071 -0.7071 0.7071 0.7071 -223.0318 259.6684)" fill="#211919" width="18.513" height="82.61"/>
<line fill="none" x1="69.421" y1="532.864" x2="580.144" y2="22.143"/>
<rect x="147.526" y="352.163" transform="matrix(0.7071 -0.7071 0.7071 0.7071 -256.2853 246.5165)" fill="#211919" width="43.832" height="160.946"/>
</svg>
