<?xml version="1.0" encoding="utf-8"?>
<!-- Generator: Adobe Illustrator 16.0.0, SVG Export Plug-In . SVG Version: 6.00 Build 0)  -->
<!DOCTYPE svg PUBLIC "-//W3C//DTD SVG 1.1//EN" "http://www.w3.org/Graphics/SVG/1.1/DTD/svg11.dtd">
<svg version="1.1" id="Layer_1" xmlns="http://www.w3.org/2000/svg" xmlns:xlink="http://www.w3.org/1999/xlink" x="0px" y="0px"
	 width="512px" height="512px" viewBox="0 0 512 512" enable-background="new 0 0 512 512" xml:space="preserve">
<path d="M0,0v64v384v64h512v-64V64V0H64H0z M416,416h64v64h-64V416z M320,416h64v64h-64V416z M128,416h64v64h-64V416z M32,416h64v64
	H32V416z M416,320h64v64h-64V320z M320,320h64v64h-64V320z M224,320h64v64h-64V320z M32,320h64v64H32V320z M96,192H32v-64h64V192z
	 M192,192h-64v-64h64V192z M288,192h-64v-64h64V192z M384,192h-64v-64h64V192z M416,224h64v64h-64V224z M320,224h64v64h-64V224z
	 M128,224h64v64h-64V224z M32,224h64v64H32V224z"/>
</svg>
