<?xml version="1.0" encoding="utf-8"?>
<!-- Generated by IcoMoon.io -->
<!DOCTYPE svg PUBLIC "-//W3C//DTD SVG 1.1//EN" "http://www.w3.org/Graphics/SVG/1.1/DTD/svg11.dtd">
<svg version="1.1" xmlns="http://www.w3.org/2000/svg" xmlns:xlink="http://www.w3.org/1999/xlink" width="1024" height="1024" viewBox="0 0 1024 1024">
<g>
</g>
	<path d="M989.166 834.061l-150.792-150.792c-27.761-27.799-66.729-37.53-102.363-29.251l-56.309-56.242c45.161-61.854 71.84-138.070 71.84-220.53 0.015-206.748-167.639-374.36-374.42-374.36s-374.388 167.609-374.388 374.36c0 206.81 167.611 374.42 374.39 374.42 82.723 0 159.172-26.855 221.146-72.29l56.022 55.985c-8.489 35.766 1.199 74.949 29.114 102.854l150.824 150.824c42.829 42.773 112.111 42.773 154.942 0 42.798-42.827 42.798-112.191-0.002-154.972zM377.006 636.37c-143.161 0-259.218-116.029-259.218-259.218 0-143.161 116.055-259.192 259.218-259.192 143.108 0 259.218 116.088 259.218 259.192 0.002 143.161-116.11 259.218-259.218 259.218z"></path>
</svg>
