<?xml version="1.0" encoding="utf-8"?>
<!-- Generator: Adobe Illustrator 16.0.0, SVG Export Plug-In . SVG Version: 6.00 Build 0)  -->
<!DOCTYPE svg PUBLIC "-//W3C//DTD SVG 1.1//EN" "http://www.w3.org/Graphics/SVG/1.1/DTD/svg11.dtd">
<svg version="1.1" id="Layer_1" xmlns="http://www.w3.org/2000/svg" xmlns:xlink="http://www.w3.org/1999/xlink" x="0px" y="0px"
	 width="600px" height="600px" viewBox="0 0 600 600" enable-background="new 0 0 600 600" xml:space="preserve">
<g id="text3041">
	<path id="path3822" fill="#010101" d="M1.581,459.371l122.17-318.12h45.353l130.199,318.12h-47.957l-37.107-96.347H81.22
		l-34.937,96.347H1.581z M93.372,328.738H201.22l-33.202-88.102c-10.125-26.763-17.649-48.752-22.567-65.967
		c-4.05,20.397-9.765,40.651-17.143,60.759L93.372,328.738z"/>
	<path id="path3824" fill="#010101" d="M310.85,379.806v-32.731h100v32.731H310.85z"/>
	<path id="path3826" fill="#010101" d="M430.018,459.371V432.97L552.26,292.644c-13.869,0.724-26.112,1.085-36.709,1.085H437.25
		v-26.402h156.964v21.52L490.235,410.728l-20.073,22.242c14.576-1.085,28.265-1.627,41.049-1.627H600v28.028H430.018z"/>
</g>
</svg>
