<?xml version="1.0" encoding="utf-8"?>
<!-- Generator: Adobe Illustrator 16.0.0, SVG Export Plug-In . SVG Version: 6.00 Build 0)  -->
<!DOCTYPE svg PUBLIC "-//W3C//DTD SVG 1.1//EN" "http://www.w3.org/Graphics/SVG/1.1/DTD/svg11.dtd">
<svg version="1.1" id="Layer_1" xmlns="http://www.w3.org/2000/svg" xmlns:xlink="http://www.w3.org/1999/xlink" x="0px" y="0px"
	 width="600px" height="600px" viewBox="0 0 600 600" enable-background="new 0 0 600 600" xml:space="preserve">
<path fill-rule="evenodd" clip-rule="evenodd" fill="#BABDBF" d="M301.49,10.937c-160.919,0-290.765,129.847-290.765,290.714
	c0,160.918,129.846,291.32,290.765,291.32c160.869,0,291.27-130.402,291.27-291.32C592.76,140.784,462.359,10.937,301.49,10.937z
	 M301.49,563.465c-144.902,0-261.815-116.912-261.815-261.813c0-144.852,116.913-261.764,261.815-261.764
	c44.681,0,86.693,11.136,123.446,30.772L337.85,256.396c-10.017-7.91-22.671-12.645-36.359-12.645
	c-32.082,0-57.95,25.868-57.95,57.9c0,32.083,25.869,58.506,57.95,58.506c32.033,0,58.455-26.423,58.455-58.506
	c0-14.062-5.093-26.934-13.516-36.952l185.738-87.089c19.834,36.894,31.086,79.121,31.086,124.042
	C563.254,446.553,446.342,563.465,301.49,563.465z"/>
</svg>
