<?xml version="1.0" encoding="utf-8"?>
<!-- Generator: Adobe Illustrator 16.0.0, SVG Export Plug-In . SVG Version: 6.00 Build 0)  -->
<!DOCTYPE svg PUBLIC "-//W3C//DTD SVG 1.1//EN" "http://www.w3.org/Graphics/SVG/1.1/DTD/svg11.dtd">
<svg version="1.1" id="Layer_1" xmlns="http://www.w3.org/2000/svg" xmlns:xlink="http://www.w3.org/1999/xlink" x="0px" y="0px"
	 width="768px" height="768px" viewBox="0 0 768 768" enable-background="new 0 0 768 768" xml:space="preserve">
<g>
	<line fill="none" stroke="#B35047" x1="31.75" y1="0" x2="31.75" y2="768"/>
	<line fill="none" stroke="#B35047" x1="63.75" y1="0" x2="63.75" y2="768"/>
	<line fill="none" stroke="#B35047" x1="95.75" y1="0" x2="95.75" y2="768"/>
	<line fill="none" stroke="#B35047" x1="127.75" y1="0" x2="127.75" y2="768"/>
	<line fill="none" stroke="#B35047" x1="159.75" y1="0" x2="159.75" y2="768"/>
	<line fill="none" stroke="#B35047" x1="191.75" y1="0" x2="191.75" y2="768"/>
	<line fill="none" stroke="#B35047" x1="223.75" y1="0" x2="223.75" y2="768"/>
	<line fill="none" stroke="#B35047" x1="255.75" y1="0" x2="255.75" y2="768"/>
	<line fill="none" stroke="#B35047" x1="287.75" y1="0" x2="287.75" y2="768"/>
	<line fill="none" stroke="#B35047" x1="319.75" y1="0" x2="319.75" y2="768"/>
	<line fill="none" stroke="#B35047" x1="351.75" y1="0" x2="351.75" y2="768"/>
	<line fill="none" stroke="#B35047" x1="383.75" y1="0" x2="383.75" y2="768"/>
	<line fill="none" stroke="#B35047" x1="415.75" y1="0" x2="415.75" y2="768"/>
	<line fill="none" stroke="#B35047" x1="447.75" y1="0" x2="447.75" y2="768"/>
	<line fill="none" stroke="#B35047" x1="479.75" y1="0" x2="479.75" y2="768"/>
	<line fill="none" stroke="#B35047" x1="511.75" y1="0" x2="511.75" y2="768"/>
	<line fill="none" stroke="#B35047" x1="543.75" y1="0" x2="543.75" y2="768"/>
	<line fill="none" stroke="#B35047" x1="575.75" y1="0" x2="575.75" y2="768"/>
	<line fill="none" stroke="#B35047" x1="607.75" y1="0" x2="607.75" y2="768"/>
	<line fill="none" stroke="#B35047" x1="639.75" y1="0" x2="639.75" y2="768"/>
	<line fill="none" stroke="#B35047" x1="671.75" y1="0" x2="671.75" y2="768"/>
	<line fill="none" stroke="#B35047" x1="703.75" y1="0" x2="703.75" y2="768"/>
	<line fill="none" stroke="#B35047" x1="735.75" y1="0" x2="735.75" y2="768"/>
	<line fill="none" stroke="#B35047" x1="-0.25" y1="32" x2="767.75" y2="32"/>
	<line fill="none" stroke="#B35047" x1="-0.25" y1="64" x2="767.75" y2="64"/>
	<line fill="none" stroke="#B35047" x1="-0.25" y1="96" x2="767.75" y2="96"/>
	<line fill="none" stroke="#B35047" x1="-0.25" y1="128" x2="767.75" y2="128"/>
	<line fill="none" stroke="#B35047" x1="-0.25" y1="160" x2="767.75" y2="160"/>
	<line fill="none" stroke="#B35047" x1="-0.25" y1="192" x2="767.75" y2="192"/>
	<line fill="none" stroke="#B35047" x1="-0.25" y1="224" x2="767.75" y2="224"/>
	<line fill="none" stroke="#B35047" x1="-0.25" y1="256" x2="767.75" y2="256"/>
	<line fill="none" stroke="#B35047" x1="-0.25" y1="288" x2="767.75" y2="288"/>
	<line fill="none" stroke="#B35047" x1="-0.25" y1="320" x2="767.75" y2="320"/>
	<line fill="none" stroke="#B35047" x1="-0.25" y1="352" x2="767.75" y2="352"/>
	<line fill="none" x1="-0.25" y1="384" x2="767.75" y2="384"/>
	<line fill="none" stroke="#B35047" x1="-0.25" y1="416" x2="767.75" y2="416"/>
	<line fill="none" stroke="#B35047" x1="-0.25" y1="448" x2="767.75" y2="448"/>
	<line fill="none" stroke="#B35047" x1="-0.25" y1="480" x2="767.75" y2="480"/>
	<line fill="none" stroke="#B35047" x1="-0.25" y1="512" x2="767.75" y2="512"/>
	<line fill="none" stroke="#B35047" x1="-0.25" y1="544" x2="767.75" y2="544"/>
	<line fill="none" stroke="#B35047" x1="-0.25" y1="576" x2="767.75" y2="576"/>
	<line fill="none" stroke="#B35047" x1="-0.25" y1="608" x2="767.75" y2="608"/>
	<line fill="none" stroke="#B35047" x1="-0.25" y1="640" x2="767.75" y2="640"/>
	<line fill="none" stroke="#B35047" x1="-0.25" y1="672" x2="767.75" y2="672"/>
	<line fill="none" stroke="#B35047" x1="-0.25" y1="704" x2="767.75" y2="704"/>
	<line fill="none" stroke="#B35047" x1="-0.25" y1="736" x2="767.75" y2="736"/>
	<rect x="-0.25" y="0" fill="none" stroke="#B35047" width="768" height="768"/>
</g>
<path d="M415.75,575.773h-64c-17.667,0-32.75-7.79-45.25-23.371S287.75,518.02,287.75,496V336.451c0-22.02,6.25-40.821,18.75-56.402
	s27.583-23.372,45.25-23.372h64c17.666,0,32.75,7.791,45.25,23.372s18.75,34.382,18.75,56.402V496
	c0,22.021-6.25,40.821-18.75,56.402S433.416,575.773,415.75,575.773z M447.75,336.451c0-11.01-3.125-20.411-9.375-28.201
	s-13.792-11.686-22.625-11.686h-64c-8.833,0-16.375,3.895-22.625,11.686s-9.375,17.191-9.375,28.201V496
	c0,11.01,3.125,20.41,9.375,28.201c6.25,7.79,13.792,11.686,22.625,11.686h64c8.833,0,16.375-3.896,22.625-11.686
	c6.25-7.791,9.375-17.191,9.375-28.201V336.451z"/>
<path d="M688.449,356.323c-4.449,0-8.268-1.942-11.457-5.827c-3.189-3.884-4.783-8.661-4.783-14.332
	c0-11.128-3.148-20.63-9.442-28.504c-6.295-7.873-13.892-11.811-22.788-11.811h-64.206c-8.897,0-16.491,3.938-22.787,11.811
	c-6.295,7.875-9.442,17.376-9.442,28.504v20.159c0,11.128,3.147,20.63,9.442,28.503c6.296,7.876,13.89,11.812,22.787,11.812h64.206
	c17.793,0,32.985,7.875,45.574,23.622c12.59,15.75,18.885,34.751,18.885,57.01v20.158c0,22.257-6.295,41.26-18.885,57.006
	c-12.589,15.75-27.781,23.623-45.574,23.623h-64.457c-17.794,0-32.985-7.873-45.574-23.623
	c-12.59-15.746-18.885-34.749-18.885-57.006c0-5.459,1.553-10.185,4.658-14.175c3.105-3.989,6.882-5.983,11.33-5.983
	c4.449,0,8.268,1.994,11.457,5.983c3.189,3.99,4.783,8.716,4.783,14.175c0,11.127,3.148,20.629,9.442,28.502
	c6.295,7.875,13.891,11.813,22.788,11.813h64.457c8.896,0,16.493-3.938,22.788-11.813c6.294-7.873,9.442-17.375,9.442-28.502
	v-20.158c0-11.129-3.148-20.631-9.442-28.505c-6.295-7.874-13.892-11.811-22.788-11.811h-64.457
	c-17.794,0-32.943-7.873-45.449-23.622c-12.506-15.75-18.758-34.75-18.758-57.009v-20.159c0-22.256,6.295-41.26,18.885-57.008
	c12.589-15.747,27.78-23.622,45.573-23.622h64.206c17.793,0,32.985,7.875,45.574,23.622c12.59,15.748,18.885,34.752,18.885,57.008
	c0,5.671-1.553,10.447-4.658,14.332C696.674,354.381,692.897,356.323,688.449,356.323z"/>
<path d="M241.137,354.039c-4.449,0-8.268-1.942-11.457-5.827c-3.189-3.884-4.783-8.661-4.783-14.332
	c0-11.128-3.148-20.63-9.442-28.503c-6.295-7.873-13.892-11.812-22.788-11.812H128.46c-8.897,0-16.491,3.938-22.787,11.812
	c-6.295,7.873-9.442,17.375-9.442,28.503v20.159c0,11.129,3.147,20.63,9.442,28.503c6.296,7.875,13.89,11.811,22.787,11.811h64.206
	c17.793,0,32.985,7.876,45.574,23.622c12.59,15.75,18.885,34.751,18.885,57.011v20.157c0,22.258-6.295,41.261-18.885,57.006
	c-12.589,15.75-27.781,23.624-45.574,23.624h-64.457c-17.794,0-32.985-7.874-45.574-23.624
	c-12.59-15.745-18.885-34.748-18.885-57.006c0-5.458,1.553-10.184,4.658-14.175c3.105-3.988,6.882-5.982,11.33-5.982
	c4.449,0,8.268,1.994,11.457,5.982c3.189,3.991,4.783,8.717,4.783,14.175c0,11.128,3.148,20.63,9.442,28.503
	c6.295,7.874,13.891,11.813,22.788,11.813h64.457c8.896,0,16.493-3.938,22.788-11.813c6.294-7.873,9.442-17.375,9.442-28.503
	v-20.157c0-11.129-3.148-20.632-9.442-28.505c-6.295-7.874-13.892-11.812-22.788-11.812h-64.457
	c-17.794,0-32.943-7.873-45.449-23.622s-18.758-34.75-18.758-57.008v-20.159c0-22.256,6.295-41.26,18.885-57.009
	c12.589-15.746,27.78-23.621,45.573-23.621h64.206c17.793,0,32.985,7.875,45.574,23.621c12.59,15.749,18.885,34.753,18.885,57.009
	c0,5.671-1.553,10.448-4.658,14.332C249.362,352.097,245.584,354.039,241.137,354.039z"/>
</svg>
