<?xml version="1.0" encoding="utf-8"?>
<!-- Generator: Adobe Illustrator 16.0.0, SVG Export Plug-In . SVG Version: 6.00 Build 0)  -->
<!DOCTYPE svg PUBLIC "-//W3C//DTD SVG 1.1//EN" "http://www.w3.org/Graphics/SVG/1.1/DTD/svg11.dtd">
<svg version="1.1" id="Layer_1" xmlns="http://www.w3.org/2000/svg" xmlns:xlink="http://www.w3.org/1999/xlink" x="0px" y="0px"
	 width="600px" height="600px" viewBox="0 0 600 600" enable-background="new 0 0 600 600" xml:space="preserve">
<path fill="#96999E" d="M360.813,496.507c-8.121,0-16.199-2.896-22.381-8.69c-12.365-11.584-12.365-30.353,0-41.937l143.47-134.446
	c22.999-21.529,23.206-42.188,19.331-55.743c-5.399-18.865-22.257-34.872-41.999-39.815c-19.988-5.137-40.596,1.449-59.185,18.864
	L234.61,389.769c-39.649,37.149-88.591,51.786-134.156,40.355c-38.763-9.771-69.159-38.077-79.34-73.875
	c-11.848-41.688,4.452-87.179,44.719-124.733l127.768-120.138c12.323-11.604,32.354-11.643,44.759-0.078
	c12.385,11.566,12.427,30.334,0.083,41.939L110.594,273.453c-24.235,22.61-34.25,46.572-28.295,67.543
	c4.431,15.6,17.353,27.495,34.601,31.82c23.205,5.792,49.767-3.284,72.952-24.985l165.438-155.028
	c34.497-32.285,78.391-44.778,120.348-34.235c41.464,10.427,75.507,42.517,86.758,81.772c11.377,39.892-1.648,81.095-35.732,113.051
	L383.191,487.816C377.009,493.61,368.932,496.507,360.813,496.507z"/>
<path fill="#96999E" d="M267.027,150.729c-20.706,0-40.104-7.523-54.664-21.167c-30.105-28.206-30.105-74.108,0-102.315
	c29.056-27.263,79.929-27.324,109.521-0.1c30.231,28.307,30.231,74.209,0.106,102.415
	C307.131,143.246,287.647,150.729,267.027,150.729z M267.027,36.898c-11.905,0-23.06,4.313-31.411,12.137
	c-17.278,16.189-17.278,42.551,0,58.741c16.745,15.668,46.143,15.688,63.229-0.1c17.172-16.091,17.172-42.452-0.107-58.642
	C290.281,41.252,278.974,36.898,267.027,36.898z"/>
<path fill="#96999E" d="M307.46,589.594c-20.706,0-40.104-7.521-54.664-21.166c-30.105-28.205-30.105-74.107,0-102.314
	c29.056-27.264,79.93-27.324,109.521-0.1c30.231,28.307,30.231,74.209,0.106,102.414C347.563,582.111,328.08,589.594,307.46,589.594
	z M307.46,475.764c-11.905,0-23.06,4.313-31.411,12.137c-17.278,16.189-17.278,42.551,0,58.742
	c16.745,15.668,46.143,15.688,63.229-0.1c17.172-16.092,17.172-42.453-0.106-58.643C330.714,480.117,319.407,475.764,307.46,475.764
	z"/>
</svg>
