<?xml version="1.0" encoding="utf-8"?>
<!-- Generator: Adobe Illustrator 16.0.0, SVG Export Plug-In . SVG Version: 6.00 Build 0)  -->
<!DOCTYPE svg PUBLIC "-//W3C//DTD SVG 1.1//EN" "http://www.w3.org/Graphics/SVG/1.1/DTD/svg11.dtd">
<svg version="1.1" id="Layer_1" xmlns="http://www.w3.org/2000/svg" xmlns:xlink="http://www.w3.org/1999/xlink" x="0px" y="0px"
	 width="600px" height="600px" viewBox="0 0 600 600" enable-background="new 0 0 600 600" xml:space="preserve">
<path fill="#A1A1AB" d="M165.226,600.545V1.417h272.331v599.128H165.226z M384.901,491.968c0-45.034-36.666-81.698-81.699-81.698
	s-81.698,36.664-81.698,81.698c0,45.031,36.665,81.699,81.698,81.699C348.234,573.667,384.901,536.999,384.901,491.968z
	 M384.901,301.335c0-45.034-36.666-81.699-81.699-81.699s-81.698,36.665-81.698,81.699c0,45.034,36.665,81.7,81.698,81.7
	C348.234,383.036,384.901,346.369,384.901,301.335z M384.901,110.703c0-45.032-36.666-81.699-81.699-81.699
	s-81.698,36.667-81.698,81.699c0,45.035,36.665,81.7,81.698,81.7C348.234,192.403,384.901,155.738,384.901,110.703z"/>
<polygon fill="#A1A1AB" points="437.557,192.049 437.557,28.651 492.024,28.651 464.791,192.049 "/>
<polygon fill="#A1A1AB" points="165.226,192.049 165.226,28.651 110.761,28.651 137.993,192.049 "/>
<polygon fill="#A1A1AB" points="437.557,382.679 437.557,219.281 492.024,219.281 464.791,382.679 "/>
<polygon fill="#A1A1AB" points="165.226,382.679 165.226,219.281 110.761,219.281 137.993,382.679 "/>
<polygon fill="#A1A1AB" points="437.557,573.309 437.557,409.913 492.024,409.913 464.791,573.309 "/>
<polygon fill="#A1A1AB" points="165.226,573.309 165.226,409.913 110.761,409.913 137.993,573.309 "/>
</svg>
