<?xml version="1.0" encoding="utf-8"?>
<!-- Generator: Adobe Illustrator 16.0.0, SVG Export Plug-In . SVG Version: 6.00 Build 0)  -->
<!DOCTYPE svg PUBLIC "-//W3C//DTD SVG 1.1//EN" "http://www.w3.org/Graphics/SVG/1.1/DTD/svg11.dtd">
<svg version="1.1" id="Layer_1" xmlns="http://www.w3.org/2000/svg" xmlns:xlink="http://www.w3.org/1999/xlink" x="0px" y="0px"
	 width="600px" height="600px" viewBox="0 0 600 600" enable-background="new 0 0 600 600" xml:space="preserve">
<path fill="#A1A1AB" d="M282.066,551.615C131.081,551.615,8.25,428.77,8.25,277.772c0-151.15,122.831-274.119,273.815-274.119
	c150.986,0,273.831,122.969,273.831,274.119C555.896,428.77,433.052,551.615,282.066,551.615z M282.066,45.781
	c-127.754,0-231.688,104.072-231.688,231.991c0,127.767,103.934,231.715,231.688,231.715c127.755,0,231.704-103.948,231.704-231.715
	C513.77,149.853,409.821,45.781,282.066,45.781z"/>
<rect x="134.345" y="254.732" fill-rule="evenodd" clip-rule="evenodd" fill="#A1A1AB" width="294.895" height="42.127"/>
<polygon fill-rule="evenodd" clip-rule="evenodd" fill="#A1A1AB" points="552.249,592.865 588.205,556.662 487.384,456.114 
	451.428,492.044 "/>
</svg>
